<svg width="40" height="25" viewBox="0 0 40 25" fill="none" style="background-color:black" xmlns="http://www.w3.org/2000/svg">
<path d="M4.016 11.12H5.184C5.58933 11.12 5.91467 11.072 6.16 10.976C6.40533 10.8693 6.62933 10.6933 6.832 10.448L14.464 1.808C14.6773 1.53067 14.9013 1.33867 15.136 1.232C15.3707 1.12533 15.6587 1.072 16 1.072H18.624L9.888 10.944C9.67467 11.2 9.46667 11.4133 9.264 11.584C9.072 11.744 8.864 11.8773 8.64 11.984C8.928 12.08 9.18933 12.224 9.424 12.416C9.65867 12.5973 9.888 12.8373 10.112 13.136L19.232 24H16.544C16.3413 24 16.1653 23.9893 16.016 23.968C15.8773 23.936 15.7547 23.8933 15.648 23.84C15.5413 23.776 15.4453 23.7067 15.36 23.632C15.2853 23.5467 15.2107 23.4507 15.136 23.344L7.232 14.24C7.01867 13.9733 6.78933 13.7867 6.544 13.68C6.29867 13.5627 5.92533 13.504 5.424 13.504H4.016V24H0.928V1.072H4.016V11.12ZM39.3645 12.976V21.776C38.2125 22.608 36.9805 23.232 35.6685 23.648C34.3672 24.0533 32.9378 24.256 31.3805 24.256C29.5352 24.256 27.8712 23.9733 26.3885 23.408C24.9058 22.832 23.6365 22.032 22.5805 21.008C21.5352 19.9733 20.7298 18.736 20.1645 17.296C19.5992 15.856 19.3165 14.272 19.3165 12.544C19.3165 10.7947 19.5885 9.2 20.1325 7.76C20.6872 6.32 21.4712 5.088 22.4845 4.064C23.4978 3.02933 24.7298 2.22933 26.1805 1.664C27.6312 1.09867 29.2525 0.815998 31.0445 0.815998C31.9512 0.815998 32.7938 0.885331 33.5725 1.024C34.3512 1.152 35.0712 1.344 35.7325 1.6C36.3938 1.84533 37.0072 2.14933 37.5725 2.512C38.1378 2.864 38.6658 3.264 39.1565 3.712L38.2765 5.12C38.1378 5.33333 37.9565 5.472 37.7325 5.536C37.5192 5.58933 37.2792 5.536 37.0125 5.376C36.7565 5.22667 36.4632 5.04533 36.1325 4.832C35.8018 4.61867 35.3965 4.416 34.9165 4.224C34.4472 4.02133 33.8872 3.85067 33.2365 3.712C32.5965 3.57333 31.8338 3.504 30.9485 3.504C29.6578 3.504 28.4898 3.71733 27.4445 4.144C26.3992 4.56 25.5085 5.16267 24.7725 5.952C24.0365 6.73067 23.4712 7.68 23.0765 8.8C22.6818 9.90933 22.4845 11.1573 22.4845 12.544C22.4845 13.984 22.6872 15.2747 23.0925 16.416C23.5085 17.5467 24.0952 18.512 24.8525 19.312C25.6205 20.1013 26.5485 20.704 27.6365 21.12C28.7245 21.536 29.9458 21.744 31.3005 21.744C32.3672 21.744 33.3112 21.6267 34.1325 21.392C34.9645 21.1467 35.7752 20.8107 36.5645 20.384V15.344H32.9965C32.7938 15.344 32.6285 15.2853 32.5005 15.168C32.3832 15.0507 32.3245 14.9067 32.3245 14.736V12.976H39.3645Z" fill="white"/>
</svg>
