<svg width="296" height="34" viewBox="0 0 296 34" fill="none" xmlns="http://www.w3.org/2000/svg">
<path d="M6.016 18.12H7.184C7.58933 18.12 7.91467 18.072 8.16 17.976C8.40533 17.8693 8.62933 17.6933 8.832 17.448L16.464 8.808C16.6773 8.53067 16.9013 8.33867 17.136 8.232C17.3707 8.12533 17.6587 8.072 18 8.072H20.624L11.888 17.944C11.6747 18.2 11.4667 18.4133 11.264 18.584C11.072 18.744 10.864 18.8773 10.64 18.984C10.928 19.08 11.1893 19.224 11.424 19.416C11.6587 19.5973 11.888 19.8373 12.112 20.136L21.232 31H18.544C18.3413 31 18.1653 30.9893 18.016 30.968C17.8773 30.936 17.7547 30.8933 17.648 30.84C17.5413 30.776 17.4453 30.7067 17.36 30.632C17.2853 30.5467 17.2107 30.4507 17.136 30.344L9.232 21.24C9.01867 20.9733 8.78933 20.7867 8.544 20.68C8.29867 20.5627 7.92533 20.504 7.424 20.504H6.016V31H2.928V8.072H6.016V18.12ZM41.3645 19.976V28.776C40.2125 29.608 38.9805 30.232 37.6685 30.648C36.3672 31.0533 34.9378 31.256 33.3805 31.256C31.5352 31.256 29.8712 30.9733 28.3885 30.408C26.9058 29.832 25.6365 29.032 24.5805 28.008C23.5352 26.9733 22.7298 25.736 22.1645 24.296C21.5992 22.856 21.3165 21.272 21.3165 19.544C21.3165 17.7947 21.5885 16.2 22.1325 14.76C22.6872 13.32 23.4712 12.088 24.4845 11.064C25.4978 10.0293 26.7298 9.22933 28.1805 8.664C29.6312 8.09867 31.2525 7.816 33.0445 7.816C33.9512 7.816 34.7938 7.88533 35.5725 8.024C36.3512 8.152 37.0712 8.344 37.7325 8.6C38.3938 8.84533 39.0072 9.14933 39.5725 9.512C40.1378 9.864 40.6658 10.264 41.1565 10.712L40.2765 12.12C40.1378 12.3333 39.9565 12.472 39.7325 12.536C39.5192 12.5893 39.2792 12.536 39.0125 12.376C38.7565 12.2267 38.4632 12.0453 38.1325 11.832C37.8018 11.6187 37.3965 11.416 36.9165 11.224C36.4472 11.0213 35.8872 10.8507 35.2365 10.712C34.5965 10.5733 33.8338 10.504 32.9485 10.504C31.6578 10.504 30.4898 10.7173 29.4445 11.144C28.3992 11.56 27.5085 12.1627 26.7725 12.952C26.0365 13.7307 25.4712 14.68 25.0765 15.8C24.6818 16.9093 24.4845 18.1573 24.4845 19.544C24.4845 20.984 24.6872 22.2747 25.0925 23.416C25.5085 24.5467 26.0952 25.512 26.8525 26.312C27.6205 27.1013 28.5485 27.704 29.6365 28.12C30.7245 28.536 31.9458 28.744 33.3005 28.744C34.3672 28.744 35.3112 28.6267 36.1325 28.392C36.9645 28.1467 37.7752 27.8107 38.5645 27.384V22.344H34.9965C34.7938 22.344 34.6285 22.2853 34.5005 22.168C34.3832 22.0507 34.3245 21.9067 34.3245 21.736V19.976H41.3645Z" fill="white"/>
<path d="M84.134 26.224C84.198 26.224 84.254 26.25 84.302 26.302L84.764 26.8C84.412 27.208 83.984 27.526 83.48 27.754C82.98 27.982 82.374 28.096 81.662 28.096C81.046 28.096 80.486 27.99 79.982 27.778C79.478 27.562 79.048 27.262 78.692 26.878C78.336 26.49 78.06 26.026 77.864 25.486C77.668 24.946 77.57 24.352 77.57 23.704C77.57 23.056 77.672 22.462 77.876 21.922C78.08 21.382 78.366 20.918 78.734 20.53C79.106 20.142 79.55 19.842 80.066 19.63C80.582 19.414 81.152 19.306 81.776 19.306C82.388 19.306 82.928 19.404 83.396 19.6C83.864 19.796 84.276 20.062 84.632 20.398L84.248 20.932C84.224 20.972 84.192 21.006 84.152 21.034C84.116 21.058 84.066 21.07 84.002 21.07C83.93 21.07 83.842 21.032 83.738 20.956C83.634 20.876 83.498 20.788 83.33 20.692C83.162 20.596 82.952 20.51 82.7 20.434C82.448 20.354 82.138 20.314 81.77 20.314C81.326 20.314 80.92 20.392 80.552 20.548C80.184 20.7 79.866 20.922 79.598 21.214C79.334 21.506 79.128 21.862 78.98 22.282C78.832 22.702 78.758 23.176 78.758 23.704C78.758 24.24 78.834 24.718 78.986 25.138C79.142 25.558 79.352 25.914 79.616 26.206C79.884 26.494 80.198 26.714 80.558 26.866C80.922 27.018 81.314 27.094 81.734 27.094C81.99 27.094 82.22 27.08 82.424 27.052C82.632 27.02 82.822 26.972 82.994 26.908C83.17 26.844 83.332 26.764 83.48 26.668C83.632 26.568 83.782 26.45 83.93 26.314C83.998 26.254 84.066 26.224 84.134 26.224ZM86.8405 23.14C87.0325 22.724 87.2685 22.4 87.5485 22.168C87.8285 21.932 88.1705 21.814 88.5745 21.814C88.7025 21.814 88.8245 21.828 88.9405 21.856C89.0605 21.884 89.1665 21.928 89.2585 21.988L89.1805 22.786C89.1565 22.886 89.0965 22.936 89.0005 22.936C88.9445 22.936 88.8625 22.924 88.7545 22.9C88.6465 22.876 88.5245 22.864 88.3885 22.864C88.1965 22.864 88.0245 22.892 87.8725 22.948C87.7245 23.004 87.5905 23.088 87.4705 23.2C87.3545 23.308 87.2485 23.444 87.1525 23.608C87.0605 23.768 86.9765 23.952 86.9005 24.16V28H85.8265V21.922H86.4385C86.5545 21.922 86.6345 21.944 86.6785 21.988C86.7225 22.032 86.7525 22.108 86.7685 22.216L86.8405 23.14ZM93.3978 25.264C92.9058 25.28 92.4858 25.32 92.1378 25.384C91.7938 25.444 91.5118 25.524 91.2918 25.624C91.0758 25.724 90.9178 25.842 90.8178 25.978C90.7218 26.114 90.6738 26.266 90.6738 26.434C90.6738 26.594 90.6998 26.732 90.7518 26.848C90.8038 26.964 90.8738 27.06 90.9618 27.136C91.0538 27.208 91.1598 27.262 91.2798 27.298C91.4038 27.33 91.5358 27.346 91.6758 27.346C91.8638 27.346 92.0358 27.328 92.1918 27.292C92.3478 27.252 92.4938 27.196 92.6298 27.124C92.7698 27.052 92.9018 26.966 93.0258 26.866C93.1538 26.766 93.2778 26.652 93.3978 26.524V25.264ZM89.9478 22.78C90.2838 22.456 90.6458 22.214 91.0338 22.054C91.4218 21.894 91.8518 21.814 92.3238 21.814C92.6638 21.814 92.9658 21.87 93.2298 21.982C93.4938 22.094 93.7158 22.25 93.8958 22.45C94.0758 22.65 94.2118 22.892 94.3038 23.176C94.3958 23.46 94.4418 23.772 94.4418 24.112V28H93.9678C93.8638 28 93.7838 27.984 93.7278 27.952C93.6718 27.916 93.6278 27.848 93.5958 27.748L93.4758 27.172C93.3158 27.32 93.1598 27.452 93.0078 27.568C92.8558 27.68 92.6958 27.776 92.5278 27.856C92.3598 27.932 92.1798 27.99 91.9878 28.03C91.7998 28.074 91.5898 28.096 91.3578 28.096C91.1218 28.096 90.8998 28.064 90.6918 28C90.4838 27.932 90.3018 27.832 90.1458 27.7C89.9938 27.568 89.8718 27.402 89.7798 27.202C89.6918 26.998 89.6478 26.758 89.6478 26.482C89.6478 26.242 89.7138 26.012 89.8458 25.792C89.9778 25.568 90.1918 25.37 90.4878 25.198C90.7838 25.026 91.1698 24.886 91.6458 24.778C92.1218 24.666 92.7058 24.602 93.3978 24.586V24.112C93.3978 23.64 93.2958 23.284 93.0918 23.044C92.8878 22.8 92.5898 22.678 92.1978 22.678C91.9338 22.678 91.7118 22.712 91.5318 22.78C91.3558 22.844 91.2018 22.918 91.0698 23.002C90.9418 23.082 90.8298 23.156 90.7338 23.224C90.6418 23.288 90.5498 23.32 90.4578 23.32C90.3858 23.32 90.3238 23.302 90.2718 23.266C90.2198 23.226 90.1758 23.178 90.1398 23.122L89.9478 22.78ZM101.327 22.816V26.464C101.327 26.72 101.389 26.91 101.513 27.034C101.637 27.158 101.795 27.22 101.987 27.22C102.103 27.22 102.201 27.206 102.281 27.178C102.365 27.146 102.437 27.112 102.497 27.076C102.557 27.04 102.607 27.008 102.647 26.98C102.687 26.948 102.723 26.932 102.755 26.932C102.791 26.932 102.819 26.94 102.839 26.956C102.863 26.972 102.887 26.998 102.911 27.034L103.223 27.544C103.039 27.716 102.817 27.852 102.557 27.952C102.297 28.048 102.027 28.096 101.747 28.096C101.271 28.096 100.903 27.962 100.643 27.694C100.387 27.426 100.259 27.04 100.259 26.536V22.816H97.4449V28H96.3709V22.834L95.6989 22.756C95.6149 22.736 95.5449 22.706 95.4889 22.666C95.4369 22.622 95.4109 22.56 95.4109 22.48V22.042H96.3709V21.454C96.3709 21.106 96.4189 20.798 96.5149 20.53C96.6149 20.258 96.7549 20.03 96.9349 19.846C97.1189 19.658 97.3389 19.516 97.5949 19.42C97.8509 19.324 98.1389 19.276 98.4589 19.276C98.7309 19.276 98.9809 19.316 99.2089 19.396L99.1849 19.93C99.1769 20.026 99.1229 20.078 99.0229 20.086C98.9269 20.094 98.7969 20.098 98.6329 20.098C98.4489 20.098 98.2809 20.122 98.1289 20.17C97.9809 20.218 97.8529 20.296 97.7449 20.404C97.6369 20.512 97.5529 20.654 97.4929 20.83C97.4369 21.006 97.4089 21.224 97.4089 21.484V22.042H100.295L100.535 20.152C100.551 20.092 100.579 20.044 100.619 20.008C100.663 19.968 100.719 19.948 100.787 19.948H101.327V22.042H103.079V22.816H101.327ZM105.318 21.922V28H104.25V21.922H105.318ZM105.546 20.014C105.546 20.118 105.524 20.216 105.48 20.308C105.44 20.396 105.384 20.476 105.312 20.548C105.244 20.616 105.162 20.67 105.066 20.71C104.974 20.75 104.876 20.77 104.772 20.77C104.668 20.77 104.57 20.75 104.478 20.71C104.39 20.67 104.312 20.616 104.244 20.548C104.176 20.476 104.122 20.396 104.082 20.308C104.042 20.216 104.022 20.118 104.022 20.014C104.022 19.91 104.042 19.812 104.082 19.72C104.122 19.624 104.176 19.542 104.244 19.474C104.312 19.402 104.39 19.346 104.478 19.306C104.57 19.266 104.668 19.246 104.772 19.246C104.876 19.246 104.974 19.266 105.066 19.306C105.162 19.346 105.244 19.402 105.312 19.474C105.384 19.542 105.44 19.624 105.48 19.72C105.524 19.812 105.546 19.91 105.546 20.014ZM108.081 22.804C108.213 22.656 108.353 22.522 108.501 22.402C108.649 22.282 108.805 22.18 108.969 22.096C109.137 22.008 109.313 21.942 109.497 21.898C109.685 21.85 109.887 21.826 110.103 21.826C110.435 21.826 110.727 21.882 110.979 21.994C111.235 22.102 111.447 22.258 111.615 22.462C111.787 22.662 111.917 22.904 112.005 23.188C112.093 23.472 112.137 23.786 112.137 24.13V28H111.063V24.13C111.063 23.67 110.957 23.314 110.745 23.062C110.537 22.806 110.219 22.678 109.791 22.678C109.475 22.678 109.179 22.754 108.903 22.906C108.631 23.058 108.379 23.264 108.147 23.524V28H107.073V21.922H107.715C107.867 21.922 107.961 21.996 107.997 22.144L108.081 22.804ZM115.882 25.03C116.098 25.03 116.288 25 116.452 24.94C116.616 24.88 116.754 24.796 116.866 24.688C116.978 24.58 117.062 24.452 117.118 24.304C117.174 24.152 117.202 23.986 117.202 23.806C117.202 23.434 117.088 23.138 116.86 22.918C116.636 22.698 116.31 22.588 115.882 22.588C115.45 22.588 115.12 22.698 114.892 22.918C114.668 23.138 114.556 23.434 114.556 23.806C114.556 23.986 114.584 24.152 114.64 24.304C114.7 24.452 114.786 24.58 114.898 24.688C115.01 24.796 115.148 24.88 115.312 24.94C115.476 25 115.666 25.03 115.882 25.03ZM117.808 28.33C117.808 28.182 117.766 28.062 117.682 27.97C117.598 27.878 117.484 27.806 117.34 27.754C117.2 27.702 117.036 27.666 116.848 27.646C116.66 27.622 116.46 27.604 116.248 27.592C116.04 27.58 115.828 27.568 115.612 27.556C115.396 27.544 115.188 27.524 114.988 27.496C114.764 27.6 114.58 27.732 114.436 27.892C114.296 28.048 114.226 28.232 114.226 28.444C114.226 28.58 114.26 28.706 114.328 28.822C114.4 28.942 114.508 29.044 114.652 29.128C114.796 29.216 114.976 29.284 115.192 29.332C115.412 29.384 115.67 29.41 115.966 29.41C116.254 29.41 116.512 29.384 116.74 29.332C116.968 29.28 117.16 29.206 117.316 29.11C117.476 29.014 117.598 28.9 117.682 28.768C117.766 28.636 117.808 28.49 117.808 28.33ZM118.894 22.162V22.558C118.894 22.69 118.81 22.774 118.642 22.81L117.952 22.9C118.088 23.164 118.156 23.456 118.156 23.776C118.156 24.072 118.098 24.342 117.982 24.586C117.87 24.826 117.714 25.032 117.514 25.204C117.314 25.376 117.074 25.508 116.794 25.6C116.514 25.692 116.21 25.738 115.882 25.738C115.598 25.738 115.33 25.704 115.078 25.636C114.95 25.716 114.852 25.802 114.784 25.894C114.716 25.982 114.682 26.072 114.682 26.164C114.682 26.308 114.74 26.418 114.856 26.494C114.976 26.566 115.132 26.618 115.324 26.65C115.516 26.682 115.734 26.702 115.978 26.71C116.226 26.718 116.478 26.732 116.734 26.752C116.994 26.768 117.246 26.798 117.49 26.842C117.738 26.886 117.958 26.958 118.15 27.058C118.342 27.158 118.496 27.296 118.612 27.472C118.732 27.648 118.792 27.876 118.792 28.156C118.792 28.416 118.726 28.668 118.594 28.912C118.466 29.156 118.28 29.372 118.036 29.56C117.792 29.752 117.492 29.904 117.136 30.016C116.784 30.132 116.386 30.19 115.942 30.19C115.498 30.19 115.11 30.146 114.778 30.058C114.446 29.97 114.17 29.852 113.95 29.704C113.73 29.556 113.564 29.384 113.452 29.188C113.344 28.996 113.29 28.794 113.29 28.582C113.29 28.282 113.384 28.028 113.572 27.82C113.76 27.612 114.018 27.446 114.346 27.322C114.166 27.242 114.022 27.136 113.914 27.004C113.81 26.868 113.758 26.686 113.758 26.458C113.758 26.37 113.774 26.28 113.806 26.188C113.838 26.092 113.886 25.998 113.95 25.906C114.018 25.81 114.1 25.72 114.196 25.636C114.292 25.552 114.404 25.478 114.532 25.414C114.232 25.246 113.998 25.024 113.83 24.748C113.662 24.468 113.578 24.144 113.578 23.776C113.578 23.48 113.634 23.212 113.746 22.972C113.862 22.728 114.022 22.522 114.226 22.354C114.43 22.182 114.672 22.05 114.952 21.958C115.236 21.866 115.546 21.82 115.882 21.82C116.146 21.82 116.392 21.85 116.62 21.91C116.848 21.966 117.056 22.05 117.244 22.162H118.894ZM124.935 28.096C124.455 28.096 124.085 27.962 123.825 27.694C123.569 27.426 123.441 27.04 123.441 26.536V22.816H122.709C122.645 22.816 122.591 22.798 122.547 22.762C122.503 22.722 122.481 22.662 122.481 22.582V22.156L123.477 22.03L123.723 20.152C123.735 20.092 123.761 20.044 123.801 20.008C123.845 19.968 123.901 19.948 123.969 19.948H124.509V22.042H126.267V22.816H124.509V26.464C124.509 26.72 124.571 26.91 124.695 27.034C124.819 27.158 124.979 27.22 125.175 27.22C125.287 27.22 125.383 27.206 125.463 27.178C125.547 27.146 125.619 27.112 125.679 27.076C125.739 27.04 125.789 27.008 125.829 26.98C125.873 26.948 125.911 26.932 125.943 26.932C125.999 26.932 126.049 26.966 126.093 27.034L126.405 27.544C126.221 27.716 125.999 27.852 125.739 27.952C125.479 28.048 125.211 28.096 124.935 28.096ZM129.896 21.826C130.34 21.826 130.74 21.9 131.096 22.048C131.452 22.196 131.756 22.406 132.008 22.678C132.26 22.95 132.452 23.28 132.584 23.668C132.72 24.052 132.788 24.482 132.788 24.958C132.788 25.438 132.72 25.87 132.584 26.254C132.452 26.638 132.26 26.966 132.008 27.238C131.756 27.51 131.452 27.72 131.096 27.868C130.74 28.012 130.34 28.084 129.896 28.084C129.448 28.084 129.044 28.012 128.684 27.868C128.328 27.72 128.024 27.51 127.772 27.238C127.52 26.966 127.326 26.638 127.19 26.254C127.058 25.87 126.992 25.438 126.992 24.958C126.992 24.482 127.058 24.052 127.19 23.668C127.326 23.28 127.52 22.95 127.772 22.678C128.024 22.406 128.328 22.196 128.684 22.048C129.044 21.9 129.448 21.826 129.896 21.826ZM129.896 27.25C130.496 27.25 130.944 27.05 131.24 26.65C131.536 26.246 131.684 25.684 131.684 24.964C131.684 24.24 131.536 23.676 131.24 23.272C130.944 22.868 130.496 22.666 129.896 22.666C129.592 22.666 129.326 22.718 129.098 22.822C128.874 22.926 128.686 23.076 128.534 23.272C128.386 23.468 128.274 23.71 128.198 23.998C128.126 24.282 128.09 24.604 128.09 24.964C128.09 25.684 128.238 26.246 128.534 26.65C128.834 27.05 129.288 27.25 129.896 27.25ZM140.003 23.86C140.335 23.86 140.627 23.816 140.879 23.728C141.135 23.64 141.349 23.518 141.521 23.362C141.697 23.202 141.829 23.012 141.917 22.792C142.005 22.572 142.049 22.33 142.049 22.066C142.049 21.518 141.879 21.09 141.539 20.782C141.203 20.474 140.691 20.32 140.003 20.32H138.623V23.86H140.003ZM140.003 19.402C140.547 19.402 141.019 19.466 141.419 19.594C141.823 19.718 142.157 19.896 142.421 20.128C142.685 20.36 142.881 20.64 143.009 20.968C143.141 21.296 143.207 21.662 143.207 22.066C143.207 22.466 143.137 22.832 142.997 23.164C142.857 23.496 142.651 23.782 142.379 24.022C142.111 24.262 141.777 24.45 141.377 24.586C140.981 24.718 140.523 24.784 140.003 24.784H138.623V28H137.465V19.402H140.003ZM148.172 24.298C148.172 24.05 148.136 23.824 148.064 23.62C147.996 23.412 147.894 23.234 147.758 23.086C147.626 22.934 147.464 22.818 147.272 22.738C147.08 22.654 146.862 22.612 146.618 22.612C146.106 22.612 145.7 22.762 145.4 23.062C145.104 23.358 144.92 23.77 144.848 24.298H148.172ZM149.036 27.148C148.904 27.308 148.746 27.448 148.562 27.568C148.378 27.684 148.18 27.78 147.968 27.856C147.76 27.932 147.544 27.988 147.32 28.024C147.096 28.064 146.874 28.084 146.654 28.084C146.234 28.084 145.846 28.014 145.49 27.874C145.138 27.73 144.832 27.522 144.572 27.25C144.316 26.974 144.116 26.634 143.972 26.23C143.828 25.826 143.756 25.362 143.756 24.838C143.756 24.414 143.82 24.018 143.948 23.65C144.08 23.282 144.268 22.964 144.512 22.696C144.756 22.424 145.054 22.212 145.406 22.06C145.758 21.904 146.154 21.826 146.594 21.826C146.958 21.826 147.294 21.888 147.602 22.012C147.914 22.132 148.182 22.308 148.406 22.54C148.634 22.768 148.812 23.052 148.94 23.392C149.068 23.728 149.132 24.112 149.132 24.544C149.132 24.712 149.114 24.824 149.078 24.88C149.042 24.936 148.974 24.964 148.874 24.964H144.812C144.824 25.348 144.876 25.682 144.968 25.966C145.064 26.25 145.196 26.488 145.364 26.68C145.532 26.868 145.732 27.01 145.964 27.106C146.196 27.198 146.456 27.244 146.744 27.244C147.012 27.244 147.242 27.214 147.434 27.154C147.63 27.09 147.798 27.022 147.938 26.95C148.078 26.878 148.194 26.812 148.286 26.752C148.382 26.688 148.464 26.656 148.532 26.656C148.62 26.656 148.688 26.69 148.736 26.758L149.036 27.148ZM151.458 23.14C151.65 22.724 151.886 22.4 152.166 22.168C152.446 21.932 152.788 21.814 153.192 21.814C153.32 21.814 153.442 21.828 153.558 21.856C153.678 21.884 153.784 21.928 153.876 21.988L153.798 22.786C153.774 22.886 153.714 22.936 153.618 22.936C153.562 22.936 153.48 22.924 153.372 22.9C153.264 22.876 153.142 22.864 153.006 22.864C152.814 22.864 152.642 22.892 152.49 22.948C152.342 23.004 152.208 23.088 152.088 23.2C151.972 23.308 151.866 23.444 151.77 23.608C151.678 23.768 151.594 23.952 151.518 24.16V28H150.444V21.922H151.056C151.172 21.922 151.252 21.944 151.296 21.988C151.34 22.032 151.37 22.108 151.386 22.216L151.458 23.14ZM155.211 28V22.834L154.539 22.756C154.455 22.736 154.385 22.706 154.329 22.666C154.277 22.622 154.251 22.56 154.251 22.48V22.042H155.211V21.454C155.211 21.106 155.259 20.798 155.355 20.53C155.455 20.258 155.595 20.03 155.775 19.846C155.959 19.658 156.179 19.516 156.435 19.42C156.691 19.324 156.979 19.276 157.299 19.276C157.571 19.276 157.821 19.316 158.049 19.396L158.025 19.93C158.017 20.026 157.963 20.078 157.863 20.086C157.767 20.094 157.637 20.098 157.473 20.098C157.289 20.098 157.121 20.122 156.969 20.17C156.821 20.218 156.693 20.296 156.585 20.404C156.477 20.512 156.393 20.654 156.333 20.83C156.277 21.006 156.249 21.224 156.249 21.484V22.042H158.001V22.816H156.285V28H155.211ZM162.891 24.298C162.891 24.05 162.855 23.824 162.783 23.62C162.715 23.412 162.613 23.234 162.477 23.086C162.345 22.934 162.183 22.818 161.991 22.738C161.799 22.654 161.581 22.612 161.337 22.612C160.825 22.612 160.419 22.762 160.119 23.062C159.823 23.358 159.639 23.77 159.567 24.298H162.891ZM163.755 27.148C163.623 27.308 163.465 27.448 163.281 27.568C163.097 27.684 162.899 27.78 162.687 27.856C162.479 27.932 162.263 27.988 162.039 28.024C161.815 28.064 161.593 28.084 161.373 28.084C160.953 28.084 160.565 28.014 160.209 27.874C159.857 27.73 159.551 27.522 159.291 27.25C159.035 26.974 158.835 26.634 158.691 26.23C158.547 25.826 158.475 25.362 158.475 24.838C158.475 24.414 158.539 24.018 158.667 23.65C158.799 23.282 158.987 22.964 159.231 22.696C159.475 22.424 159.773 22.212 160.125 22.06C160.477 21.904 160.873 21.826 161.313 21.826C161.677 21.826 162.013 21.888 162.321 22.012C162.633 22.132 162.901 22.308 163.125 22.54C163.353 22.768 163.531 23.052 163.659 23.392C163.787 23.728 163.851 24.112 163.851 24.544C163.851 24.712 163.833 24.824 163.797 24.88C163.761 24.936 163.693 24.964 163.593 24.964H159.531C159.543 25.348 159.595 25.682 159.687 25.966C159.783 26.25 159.915 26.488 160.083 26.68C160.251 26.868 160.451 27.01 160.683 27.106C160.915 27.198 161.175 27.244 161.463 27.244C161.731 27.244 161.961 27.214 162.153 27.154C162.349 27.09 162.517 27.022 162.657 26.95C162.797 26.878 162.913 26.812 163.005 26.752C163.101 26.688 163.183 26.656 163.251 26.656C163.339 26.656 163.407 26.69 163.455 26.758L163.755 27.148ZM169.392 23.002C169.36 23.046 169.328 23.08 169.296 23.104C169.264 23.128 169.22 23.14 169.164 23.14C169.104 23.14 169.038 23.116 168.966 23.068C168.894 23.016 168.804 22.96 168.696 22.9C168.592 22.84 168.462 22.786 168.306 22.738C168.154 22.686 167.966 22.66 167.742 22.66C167.442 22.66 167.178 22.714 166.95 22.822C166.722 22.926 166.53 23.078 166.374 23.278C166.222 23.478 166.106 23.72 166.026 24.004C165.95 24.288 165.912 24.606 165.912 24.958C165.912 25.326 165.954 25.654 166.038 25.942C166.122 26.226 166.24 26.466 166.392 26.662C166.548 26.854 166.734 27.002 166.95 27.106C167.17 27.206 167.416 27.256 167.688 27.256C167.948 27.256 168.162 27.226 168.33 27.166C168.498 27.102 168.636 27.032 168.744 26.956C168.856 26.88 168.948 26.812 169.02 26.752C169.096 26.688 169.17 26.656 169.242 26.656C169.33 26.656 169.398 26.69 169.446 26.758L169.746 27.148C169.614 27.312 169.464 27.452 169.296 27.568C169.128 27.684 168.946 27.782 168.75 27.862C168.558 27.938 168.356 27.994 168.144 28.03C167.932 28.066 167.716 28.084 167.496 28.084C167.116 28.084 166.762 28.014 166.434 27.874C166.11 27.734 165.828 27.532 165.588 27.268C165.348 27 165.16 26.672 165.024 26.284C164.888 25.896 164.82 25.454 164.82 24.958C164.82 24.506 164.882 24.088 165.006 23.704C165.134 23.32 165.318 22.99 165.558 22.714C165.802 22.434 166.1 22.216 166.452 22.06C166.808 21.904 167.216 21.826 167.676 21.826C168.104 21.826 168.48 21.896 168.804 22.036C169.132 22.172 169.422 22.366 169.674 22.618L169.392 23.002ZM176.533 28H175.465V22.816H172.333V26.464C172.333 26.72 172.395 26.91 172.519 27.034C172.643 27.158 172.803 27.22 172.999 27.22C173.111 27.22 173.207 27.206 173.287 27.178C173.371 27.146 173.443 27.112 173.503 27.076C173.563 27.04 173.613 27.008 173.653 26.98C173.697 26.948 173.735 26.932 173.767 26.932C173.823 26.932 173.873 26.966 173.917 27.034L174.229 27.544C174.045 27.716 173.823 27.852 173.563 27.952C173.303 28.048 173.035 28.096 172.759 28.096C172.279 28.096 171.909 27.962 171.649 27.694C171.393 27.426 171.265 27.04 171.265 26.536V22.816H170.533C170.469 22.816 170.415 22.798 170.371 22.762C170.327 22.722 170.305 22.662 170.305 22.582V22.156L171.301 22.024L171.547 20.152C171.559 20.092 171.585 20.044 171.625 20.008C171.669 19.968 171.725 19.948 171.793 19.948H172.333V22.042H176.533V28ZM176.797 19.972C176.797 20.076 176.775 20.174 176.731 20.266C176.691 20.354 176.635 20.432 176.563 20.5C176.495 20.568 176.415 20.622 176.323 20.662C176.231 20.702 176.133 20.722 176.029 20.722C175.925 20.722 175.827 20.702 175.735 20.662C175.647 20.622 175.569 20.568 175.501 20.5C175.433 20.432 175.379 20.354 175.339 20.266C175.299 20.174 175.279 20.076 175.279 19.972C175.279 19.868 175.299 19.77 175.339 19.678C175.379 19.582 175.433 19.5 175.501 19.432C175.569 19.36 175.647 19.304 175.735 19.264C175.827 19.224 175.925 19.204 176.029 19.204C176.133 19.204 176.231 19.224 176.323 19.264C176.415 19.304 176.495 19.36 176.563 19.432C176.635 19.5 176.691 19.582 176.731 19.678C176.775 19.77 176.797 19.868 176.797 19.972ZM180.849 21.826C181.293 21.826 181.693 21.9 182.049 22.048C182.405 22.196 182.709 22.406 182.961 22.678C183.213 22.95 183.405 23.28 183.537 23.668C183.673 24.052 183.741 24.482 183.741 24.958C183.741 25.438 183.673 25.87 183.537 26.254C183.405 26.638 183.213 26.966 182.961 27.238C182.709 27.51 182.405 27.72 182.049 27.868C181.693 28.012 181.293 28.084 180.849 28.084C180.401 28.084 179.997 28.012 179.637 27.868C179.281 27.72 178.977 27.51 178.725 27.238C178.473 26.966 178.279 26.638 178.143 26.254C178.011 25.87 177.945 25.438 177.945 24.958C177.945 24.482 178.011 24.052 178.143 23.668C178.279 23.28 178.473 22.95 178.725 22.678C178.977 22.406 179.281 22.196 179.637 22.048C179.997 21.9 180.401 21.826 180.849 21.826ZM180.849 27.25C181.449 27.25 181.897 27.05 182.193 26.65C182.489 26.246 182.637 25.684 182.637 24.964C182.637 24.24 182.489 23.676 182.193 23.272C181.897 22.868 181.449 22.666 180.849 22.666C180.545 22.666 180.279 22.718 180.051 22.822C179.827 22.926 179.639 23.076 179.487 23.272C179.339 23.468 179.227 23.71 179.151 23.998C179.079 24.282 179.043 24.604 179.043 24.964C179.043 25.684 179.191 26.246 179.487 26.65C179.787 27.05 180.241 27.25 180.849 27.25ZM186.104 22.804C186.236 22.656 186.376 22.522 186.524 22.402C186.672 22.282 186.828 22.18 186.992 22.096C187.16 22.008 187.336 21.942 187.52 21.898C187.708 21.85 187.91 21.826 188.126 21.826C188.458 21.826 188.75 21.882 189.002 21.994C189.258 22.102 189.47 22.258 189.638 22.462C189.81 22.662 189.94 22.904 190.028 23.188C190.116 23.472 190.16 23.786 190.16 24.13V28H189.086V24.13C189.086 23.67 188.98 23.314 188.768 23.062C188.56 22.806 188.242 22.678 187.814 22.678C187.498 22.678 187.202 22.754 186.926 22.906C186.654 23.058 186.402 23.264 186.17 23.524V28H185.096V21.922H185.738C185.89 21.922 185.984 21.996 186.02 22.144L186.104 22.804Z" fill="white"/>
</svg>
