<svg width="134" height="8" viewBox="0 0 134 8" fill="none" xmlns="http://www.w3.org/2000/svg">
<path d="M1.692 3.3775H2.0205C2.1345 3.3775 2.226 3.364 2.295 3.337C2.364 3.307 2.427 3.2575 2.484 3.1885L4.6305 0.7585C4.6905 0.6805 4.7535 0.6265 4.8195 0.5965C4.8855 0.5665 4.9665 0.5515 5.0625 0.5515H5.8005L3.3435 3.328C3.2835 3.4 3.225 3.46 3.168 3.508C3.114 3.553 3.0555 3.5905 2.9925 3.6205C3.0735 3.6475 3.147 3.688 3.213 3.742C3.279 3.793 3.3435 3.8605 3.4065 3.9445L5.9715 7H5.2155C5.1585 7 5.109 6.997 5.067 6.991C5.028 6.982 4.9935 6.97 4.9635 6.955C4.9335 6.937 4.9065 6.9175 4.8825 6.8965C4.8615 6.8725 4.8405 6.8455 4.8195 6.8155L2.5965 4.255C2.5365 4.18 2.472 4.1275 2.403 4.0975C2.334 4.0645 2.229 4.048 2.088 4.048H1.692V7H0.8235V0.5515H1.692V3.3775ZM10.7605 6.289L10.756 7H6.78248V0.5515H10.756V1.2625H7.65548V3.4045H10.1665V4.0885H7.65548V6.289H10.7605ZM15.9548 6.289L15.9503 7H11.9768V0.5515H15.9503V1.2625H12.8498V3.4045H15.3608V4.0885H12.8498V6.289H15.9548ZM18.9577 3.6745C19.2097 3.6745 19.4317 3.6445 19.6237 3.5845C19.8187 3.5215 19.9807 3.4345 20.1097 3.3235C20.2417 3.2095 20.3407 3.0745 20.4067 2.9185C20.4727 2.7625 20.5057 2.59 20.5057 2.401C20.5057 2.017 20.3797 1.7275 20.1277 1.5325C19.8757 1.3375 19.4977 1.24 18.9937 1.24H18.0397V3.6745H18.9577ZM21.9367 7H21.1627C21.0037 7 20.8867 6.9385 20.8117 6.8155L19.1377 4.5115C19.0867 4.4395 19.0312 4.3885 18.9712 4.3585C18.9142 4.3255 18.8242 4.309 18.7012 4.309H18.0397V7H17.1712V0.5515H18.9937C19.4017 0.5515 19.7542 0.5935 20.0512 0.6775C20.3482 0.7585 20.5927 0.877 20.7847 1.033C20.9797 1.189 21.1237 1.378 21.2167 1.6C21.3097 1.819 21.3562 2.065 21.3562 2.338C21.3562 2.566 21.3202 2.779 21.2482 2.977C21.1762 3.175 21.0712 3.3535 20.9332 3.5125C20.7982 3.6685 20.6317 3.802 20.4337 3.913C20.2387 4.024 20.0167 4.108 19.7677 4.165C19.8787 4.228 19.9747 4.3195 20.0557 4.4395L21.9367 7ZM26.9633 1.285H24.8753V7H24.0068V1.285H21.9143V0.5515H26.9633V1.285ZM33.1447 0.5515V7H32.2717V4.066H28.7932V7H27.9202V0.5515H28.7932V3.427H32.2717V0.5515H33.1447ZM38.2177 4.606L37.2052 1.9825C37.1752 1.9045 37.1437 1.8145 37.1107 1.7125C37.0777 1.6075 37.0462 1.4965 37.0162 1.3795C36.9532 1.6225 36.8887 1.825 36.8227 1.987L35.8102 4.606H38.2177ZM40.0357 7H39.3607C39.2827 7 39.2197 6.9805 39.1717 6.9415C39.1237 6.9025 39.0877 6.853 39.0637 6.793L38.4607 5.236H35.5672L34.9642 6.793C34.9462 6.847 34.9117 6.895 34.8607 6.937C34.8097 6.979 34.7467 7 34.6717 7H33.9967L36.5752 0.5515H37.4572L40.0357 7ZM46.1085 0.5515V7H45.672C45.603 7 45.5445 6.988 45.4965 6.964C45.4515 6.94 45.4065 6.8995 45.3615 6.8425L41.631 1.9825C41.637 2.0575 41.6415 2.131 41.6445 2.203C41.6475 2.275 41.649 2.3425 41.649 2.4055V7H40.884V0.5515H41.334C41.373 0.5515 41.406 0.5545 41.433 0.560499C41.46 0.5635 41.484 0.571 41.505 0.582999C41.526 0.592 41.547 0.607 41.568 0.628C41.589 0.646 41.6115 0.67 41.6355 0.7L45.366 5.5555C45.36 5.4775 45.354 5.4025 45.348 5.3305C45.345 5.2555 45.3435 5.185 45.3435 5.119V0.5515H46.1085ZM55.2978 3.8995V6.3745C54.9738 6.6085 54.6273 6.784 54.2583 6.901C53.8923 7.015 53.4903 7.072 53.0523 7.072C52.5333 7.072 52.0653 6.9925 51.6483 6.8335C51.2313 6.6715 50.8743 6.4465 50.5773 6.1585C50.2833 5.8675 50.0568 5.5195 49.8978 5.1145C49.7388 4.7095 49.6593 4.264 49.6593 3.778C49.6593 3.286 49.7358 2.8375 49.8888 2.4325C50.0448 2.0275 50.2653 1.681 50.5503 1.393C50.8353 1.102 51.1818 0.877 51.5898 0.718C51.9978 0.559 52.4538 0.479499 52.9578 0.479499C53.2128 0.479499 53.4498 0.498999 53.6688 0.538C53.8878 0.574 54.0903 0.628 54.2763 0.7C54.4623 0.769 54.6348 0.8545 54.7938 0.9565C54.9528 1.0555 55.1013 1.168 55.2393 1.294L54.9918 1.69C54.9528 1.75 54.9018 1.789 54.8388 1.807C54.7788 1.822 54.7113 1.807 54.6363 1.762C54.5643 1.72 54.4818 1.669 54.3888 1.609C54.2958 1.549 54.1818 1.492 54.0468 1.438C53.9148 1.381 53.7573 1.333 53.5743 1.294C53.3943 1.255 53.1798 1.2355 52.9308 1.2355C52.5678 1.2355 52.2393 1.2955 51.9453 1.4155C51.6513 1.5325 51.4008 1.702 51.1938 1.924C50.9868 2.143 50.8278 2.41 50.7168 2.725C50.6058 3.037 50.5503 3.388 50.5503 3.778C50.5503 4.183 50.6073 4.546 50.7213 4.867C50.8383 5.185 51.0033 5.4565 51.2163 5.6815C51.4323 5.9035 51.6933 6.073 51.9993 6.19C52.3053 6.307 52.6488 6.3655 53.0298 6.3655C53.3298 6.3655 53.5953 6.3325 53.8263 6.2665C54.0603 6.1975 54.2883 6.103 54.5103 5.983V4.5655H53.5068C53.4498 4.5655 53.4033 4.549 53.3673 4.516C53.3343 4.483 53.3178 4.4425 53.3178 4.3945V3.8995H55.2978ZM62.592 3.778C62.592 4.261 62.5155 4.705 62.3625 5.11C62.2095 5.512 61.9935 5.8585 61.7145 6.1495C61.4355 6.4405 61.0995 6.667 60.7065 6.829C60.3165 6.988 59.8845 7.0675 59.4105 7.0675C58.9365 7.0675 58.5045 6.988 58.1145 6.829C57.7245 6.667 57.39 6.4405 57.111 6.1495C56.832 5.8585 56.616 5.512 56.463 5.11C56.31 4.705 56.2335 4.261 56.2335 3.778C56.2335 3.295 56.31 2.8525 56.463 2.4505C56.616 2.0455 56.832 1.6975 57.111 1.4065C57.39 1.1125 57.7245 0.8845 58.1145 0.7225C58.5045 0.560499 58.9365 0.479499 59.4105 0.479499C59.8845 0.479499 60.3165 0.560499 60.7065 0.7225C61.0995 0.8845 61.4355 1.1125 61.7145 1.4065C61.9935 1.6975 62.2095 2.0455 62.3625 2.4505C62.5155 2.8525 62.592 3.295 62.592 3.778ZM61.6965 3.778C61.6965 3.382 61.6425 3.0265 61.5345 2.7115C61.4265 2.3965 61.2735 2.131 61.0755 1.915C60.8775 1.696 60.6375 1.528 60.3555 1.411C60.0735 1.294 59.7585 1.2355 59.4105 1.2355C59.0655 1.2355 58.752 1.294 58.47 1.411C58.188 1.528 57.9465 1.696 57.7455 1.915C57.5475 2.131 57.3945 2.3965 57.2865 2.7115C57.1785 3.0265 57.1245 3.382 57.1245 3.778C57.1245 4.174 57.1785 4.5295 57.2865 4.8445C57.3945 5.1565 57.5475 5.422 57.7455 5.641C57.9465 5.857 58.188 6.0235 58.47 6.1405C58.752 6.2545 59.0655 6.3115 59.4105 6.3115C59.7585 6.3115 60.0735 6.2545 60.3555 6.1405C60.6375 6.0235 60.8775 5.857 61.0755 5.641C61.2735 5.422 61.4265 5.1565 61.5345 4.8445C61.6425 4.5295 61.6965 4.174 61.6965 3.778ZM65.7446 3.895C65.9936 3.895 66.2126 3.862 66.4016 3.796C66.5936 3.73 66.7541 3.6385 66.8831 3.5215C67.0151 3.4015 67.1141 3.259 67.1801 3.094C67.2461 2.929 67.2791 2.7475 67.2791 2.5495C67.2791 2.1385 67.1516 1.8175 66.8966 1.5865C66.6446 1.3555 66.2606 1.24 65.7446 1.24H64.7096V3.895H65.7446ZM65.7446 0.5515C66.1526 0.5515 66.5066 0.5995 66.8066 0.6955C67.1096 0.7885 67.3601 0.922 67.5581 1.096C67.7561 1.27 67.9031 1.48 67.9991 1.726C68.0981 1.972 68.1476 2.2465 68.1476 2.5495C68.1476 2.8495 68.0951 3.124 67.9901 3.373C67.8851 3.622 67.7306 3.8365 67.5266 4.0165C67.3256 4.1965 67.0751 4.3375 66.7751 4.4395C66.4781 4.5385 66.1346 4.588 65.7446 4.588H64.7096V7H63.8411V0.5515H65.7446ZM72.2226 4.606L71.2101 1.9825C71.1801 1.9045 71.1486 1.8145 71.1156 1.7125C71.0826 1.6075 71.0511 1.4965 71.0211 1.3795C70.9581 1.6225 70.8936 1.825 70.8276 1.987L69.8151 4.606H72.2226ZM74.0406 7H73.3656C73.2876 7 73.2246 6.9805 73.1766 6.9415C73.1286 6.9025 73.0926 6.853 73.0686 6.793L72.4656 5.236H69.5721L68.9691 6.793C68.9511 6.847 68.9166 6.895 68.8656 6.937C68.8146 6.979 68.7516 7 68.6766 7H68.0016L70.5801 0.5515H71.4621L74.0406 7ZM78.5474 6.2665V7H74.8889V0.5515H75.7574V6.2665H78.5474ZM82.9365 4.606L81.924 1.9825C81.894 1.9045 81.8625 1.8145 81.8295 1.7125C81.7965 1.6075 81.765 1.4965 81.735 1.3795C81.672 1.6225 81.6075 1.825 81.5415 1.987L80.529 4.606H82.9365ZM84.7545 7H84.0795C84.0015 7 83.9385 6.9805 83.8905 6.9415C83.8425 6.9025 83.8065 6.853 83.7825 6.793L83.1795 5.236H80.286L79.683 6.793C79.665 6.847 79.6305 6.895 79.5795 6.937C79.5285 6.979 79.4655 7 79.3905 7H78.7155L81.294 0.5515H82.176L84.7545 7ZM86.4713 3.3775H86.7998C86.9138 3.3775 87.0053 3.364 87.0743 3.337C87.1433 3.307 87.2063 3.2575 87.2633 3.1885L89.4098 0.7585C89.4698 0.6805 89.5328 0.6265 89.5988 0.5965C89.6648 0.5665 89.7458 0.5515 89.8418 0.5515H90.5798L88.1228 3.328C88.0628 3.4 88.0043 3.46 87.9473 3.508C87.8933 3.553 87.8348 3.5905 87.7718 3.6205C87.8528 3.6475 87.9263 3.688 87.9923 3.742C88.0583 3.793 88.1228 3.8605 88.1858 3.9445L90.7508 7H89.9948C89.9378 7 89.8883 6.997 89.8463 6.991C89.8073 6.982 89.7728 6.97 89.7428 6.955C89.7128 6.937 89.6858 6.9175 89.6618 6.8965C89.6408 6.8725 89.6198 6.8455 89.5988 6.8155L87.3758 4.255C87.3158 4.18 87.2513 4.1275 87.1823 4.0975C87.1133 4.0645 87.0083 4.048 86.8673 4.048H86.4713V7H85.6028V0.5515H86.4713V3.3775ZM93.3483 3.6745C93.6003 3.6745 93.8223 3.6445 94.0143 3.5845C94.2093 3.5215 94.3713 3.4345 94.5003 3.3235C94.6323 3.2095 94.7313 3.0745 94.7973 2.9185C94.8633 2.7625 94.8963 2.59 94.8963 2.401C94.8963 2.017 94.7703 1.7275 94.5183 1.5325C94.2663 1.3375 93.8883 1.24 93.3843 1.24H92.4303V3.6745H93.3483ZM96.3273 7H95.5533C95.3943 7 95.2773 6.9385 95.2023 6.8155L93.5283 4.5115C93.4773 4.4395 93.4218 4.3885 93.3618 4.3585C93.3048 4.3255 93.2148 4.309 93.0918 4.309H92.4303V7H91.5618V0.5515H93.3843C93.7923 0.5515 94.1448 0.5935 94.4418 0.6775C94.7388 0.7585 94.9833 0.877 95.1753 1.033C95.3703 1.189 95.5143 1.378 95.6073 1.6C95.7003 1.819 95.7468 2.065 95.7468 2.338C95.7468 2.566 95.7108 2.779 95.6388 2.977C95.5668 3.175 95.4618 3.3535 95.3238 3.5125C95.1888 3.6685 95.0223 3.802 94.8243 3.913C94.6293 4.024 94.4073 4.108 94.1583 4.165C94.2693 4.228 94.3653 4.3195 94.4463 4.4395L96.3273 7ZM99.6577 6.307C99.9247 6.307 100.163 6.262 100.373 6.172C100.583 6.082 100.76 5.956 100.904 5.794C101.051 5.632 101.162 5.4385 101.237 5.2135C101.315 4.9885 101.354 4.741 101.354 4.471V0.5515H102.223V4.471C102.223 4.843 102.163 5.188 102.043 5.506C101.926 5.824 101.756 6.1 101.534 6.334C101.315 6.565 101.047 6.7465 100.729 6.8785C100.411 7.0105 100.054 7.0765 99.6577 7.0765C99.2617 7.0765 98.9047 7.0105 98.5867 6.8785C98.2687 6.7465 97.9987 6.565 97.7767 6.334C97.5547 6.1 97.3837 5.824 97.2637 5.506C97.1467 5.188 97.0882 4.843 97.0882 4.471V0.5515H97.9567V4.4665C97.9567 4.7365 97.9942 4.984 98.0692 5.209C98.1472 5.434 98.2582 5.6275 98.4022 5.7895C98.5492 5.9515 98.7277 6.079 98.9377 6.172C99.1507 6.262 99.3907 6.307 99.6577 6.307ZM107.086 1.5595C107.059 1.6045 107.029 1.639 106.996 1.663C106.966 1.684 106.928 1.6945 106.883 1.6945C106.832 1.6945 106.772 1.669 106.703 1.618C106.634 1.567 106.547 1.5115 106.442 1.4515C106.34 1.3885 106.216 1.3315 106.069 1.2805C105.925 1.2295 105.749 1.204 105.542 1.204C105.347 1.204 105.175 1.231 105.025 1.285C104.878 1.336 104.753 1.4065 104.651 1.4965C104.552 1.5865 104.477 1.693 104.426 1.816C104.375 1.936 104.35 2.0665 104.35 2.2075C104.35 2.3875 104.393 2.5375 104.48 2.6575C104.57 2.7745 104.687 2.875 104.831 2.959C104.978 3.043 105.143 3.1165 105.326 3.1795C105.512 3.2395 105.701 3.3025 105.893 3.3685C106.088 3.4345 106.277 3.5095 106.46 3.5935C106.646 3.6745 106.811 3.778 106.955 3.904C107.102 4.03 107.219 4.1845 107.306 4.3675C107.396 4.5505 107.441 4.7755 107.441 5.0425C107.441 5.3245 107.393 5.59 107.297 5.839C107.201 6.085 107.06 6.2995 106.874 6.4825C106.691 6.6655 106.465 6.8095 106.195 6.9145C105.928 7.0195 105.623 7.072 105.281 7.072C104.861 7.072 104.48 6.997 104.138 6.847C103.796 6.694 103.504 6.4885 103.261 6.2305L103.513 5.8165C103.537 5.7835 103.565 5.7565 103.598 5.7355C103.634 5.7115 103.673 5.6995 103.715 5.6995C103.754 5.6995 103.798 5.716 103.846 5.749C103.897 5.779 103.954 5.818 104.017 5.866C104.08 5.914 104.152 5.9665 104.233 6.0235C104.314 6.0805 104.405 6.133 104.507 6.181C104.612 6.229 104.731 6.2695 104.863 6.3025C104.995 6.3325 105.143 6.3475 105.308 6.3475C105.515 6.3475 105.7 6.319 105.862 6.262C106.024 6.205 106.16 6.1255 106.271 6.0235C106.385 5.9185 106.472 5.794 106.532 5.65C106.592 5.506 106.622 5.3455 106.622 5.1685C106.622 4.9735 106.577 4.8145 106.487 4.6915C106.4 4.5655 106.285 4.4605 106.141 4.3765C105.997 4.2925 105.832 4.222 105.646 4.165C105.46 4.105 105.271 4.045 105.079 3.985C104.887 3.922 104.698 3.85 104.512 3.769C104.326 3.688 104.161 3.583 104.017 3.454C103.873 3.325 103.756 3.1645 103.666 2.9725C103.579 2.7775 103.535 2.5375 103.535 2.2525C103.535 2.0245 103.579 1.804 103.666 1.591C103.756 1.378 103.885 1.189 104.053 1.024C104.224 0.859 104.432 0.727 104.678 0.628C104.927 0.529 105.212 0.479499 105.533 0.479499C105.893 0.479499 106.22 0.5365 106.514 0.6505C106.811 0.7645 107.072 0.9295 107.297 1.1455L107.086 1.5595ZM113.899 0.5515V7H113.026V4.066H109.547V7H108.674V0.5515H109.547V3.427H113.026V0.5515H113.899ZM120.772 0.5515V7H120.335C120.266 7 120.208 6.988 120.16 6.964C120.115 6.94 120.07 6.8995 120.025 6.8425L116.294 1.9825C116.3 2.0575 116.305 2.131 116.308 2.203C116.311 2.275 116.312 2.3425 116.312 2.4055V7H115.547V0.5515H115.997C116.036 0.5515 116.069 0.5545 116.096 0.560499C116.123 0.5635 116.147 0.571 116.168 0.582999C116.189 0.592 116.21 0.607 116.231 0.628C116.252 0.646 116.275 0.67 116.299 0.7L120.029 5.5555C120.023 5.4775 120.017 5.4025 120.011 5.3305C120.008 5.2555 120.007 5.185 120.007 5.119V0.5515H120.772ZM125.845 4.606L124.832 1.9825C124.802 1.9045 124.771 1.8145 124.738 1.7125C124.705 1.6075 124.673 1.4965 124.643 1.3795C124.58 1.6225 124.516 1.825 124.45 1.987L123.437 4.606H125.845ZM127.663 7H126.988C126.91 7 126.847 6.9805 126.799 6.9415C126.751 6.9025 126.715 6.853 126.691 6.793L126.088 5.236H123.194L122.591 6.793C122.573 6.847 122.539 6.895 122.488 6.937C122.437 6.979 122.374 7 122.299 7H121.624L124.202 0.5515H125.084L127.663 7ZM133.736 0.5515V7H133.299C133.23 7 133.172 6.988 133.124 6.964C133.079 6.94 133.034 6.8995 132.989 6.8425L129.258 1.9825C129.264 2.0575 129.269 2.131 129.272 2.203C129.275 2.275 129.276 2.3425 129.276 2.4055V7H128.511V0.5515H128.961C129 0.5515 129.033 0.5545 129.06 0.560499C129.087 0.5635 129.111 0.571 129.132 0.582999C129.153 0.592 129.174 0.607 129.195 0.628C129.216 0.646 129.239 0.67 129.263 0.7L132.993 5.5555C132.987 5.4775 132.981 5.4025 132.975 5.3305C132.972 5.2555 132.971 5.185 132.971 5.119V0.5515H133.736Z" fill="#C4C4C4"/>
</svg>
