<svg width="1440" height="1024" viewBox="0 0 1440 1024" fill="none" xmlns="http://www.w3.org/2000/svg">
<path d="M283.032 274.24H285.368C286.179 274.24 286.829 274.144 287.32 273.952C287.811 273.739 288.259 273.387 288.664 272.896L303.928 255.616C304.355 255.061 304.803 254.677 305.272 254.464C305.741 254.251 306.317 254.144 307 254.144H312.248L294.776 273.888C294.349 274.4 293.933 274.827 293.528 275.168C293.144 275.488 292.728 275.755 292.28 275.968C292.856 276.16 293.379 276.448 293.848 276.832C294.317 277.195 294.776 277.675 295.224 278.272L313.464 300H308.088C307.683 300 307.331 299.979 307.032 299.936C306.755 299.872 306.509 299.787 306.296 299.68C306.083 299.552 305.891 299.413 305.72 299.264C305.571 299.093 305.421 298.901 305.272 298.688L289.464 280.48C289.037 279.947 288.579 279.573 288.088 279.36C287.597 279.125 286.851 279.008 285.848 279.008H283.032V300H276.856V254.144H283.032V274.24ZM353.729 277.952V295.552C351.425 297.216 348.961 298.464 346.337 299.296C343.734 300.107 340.876 300.512 337.761 300.512C334.07 300.512 330.742 299.947 327.777 298.816C324.812 297.664 322.273 296.064 320.161 294.016C318.07 291.947 316.46 289.472 315.329 286.592C314.198 283.712 313.633 280.544 313.633 277.088C313.633 273.589 314.177 270.4 315.265 267.52C316.374 264.64 317.942 262.176 319.969 260.128C321.996 258.059 324.46 256.459 327.361 255.328C330.262 254.197 333.505 253.632 337.089 253.632C338.902 253.632 340.588 253.771 342.145 254.048C343.702 254.304 345.142 254.688 346.465 255.2C347.788 255.691 349.014 256.299 350.145 257.024C351.276 257.728 352.332 258.528 353.313 259.424L351.553 262.24C351.276 262.667 350.913 262.944 350.465 263.072C350.038 263.179 349.558 263.072 349.025 262.752C348.513 262.453 347.926 262.091 347.265 261.664C346.604 261.237 345.793 260.832 344.833 260.448C343.894 260.043 342.774 259.701 341.473 259.424C340.193 259.147 338.668 259.008 336.897 259.008C334.316 259.008 331.98 259.435 329.889 260.288C327.798 261.12 326.017 262.325 324.545 263.904C323.073 265.461 321.942 267.36 321.153 269.6C320.364 271.819 319.969 274.315 319.969 277.088C319.969 279.968 320.374 282.549 321.185 284.832C322.017 287.093 323.19 289.024 324.705 290.624C326.241 292.203 328.097 293.408 330.273 294.24C332.449 295.072 334.892 295.488 337.601 295.488C339.734 295.488 341.622 295.253 343.265 294.784C344.929 294.293 346.55 293.621 348.129 292.768V282.688H340.993C340.588 282.688 340.257 282.571 340.001 282.336C339.766 282.101 339.649 281.813 339.649 281.472V277.952H353.729Z" fill="#C4C4C4"/>
</svg>
