<svg width="180" height="27" viewBox="0 0 180 27" fill="none" xmlns="http://www.w3.org/2000/svg">
<path d="M4.01598 11.12H5.18398C5.58931 11.12 5.91465 11.072 6.15998 10.976C6.40531 10.8693 6.62931 10.6933 6.83198 10.448L14.464 1.80801C14.6773 1.53068 14.9013 1.33868 15.136 1.23201C15.3707 1.12534 15.6587 1.07201 16 1.07201H18.624L9.88798 10.944C9.67468 11.2 9.46668 11.4133 9.26398 11.584C9.07198 11.744 8.86398 11.8773 8.63998 11.984C8.92798 12.08 9.18928 12.224 9.42398 12.416C9.65868 12.5973 9.88798 12.8373 10.112 13.136L19.232 24H16.544C16.3413 24 16.1653 23.9893 16.016 23.968C15.8773 23.936 15.7547 23.8933 15.648 23.84C15.5413 23.776 15.4453 23.7067 15.36 23.632C15.2853 23.5467 15.2107 23.4507 15.136 23.344L7.23198 14.24C7.01865 13.9733 6.78931 13.7867 6.54398 13.68C6.29865 13.5627 5.92531 13.504 5.42398 13.504H4.01598V24H0.927979V1.07201H4.01598V11.12ZM39.3645 12.976V21.776C38.2125 22.608 36.9805 23.232 35.6685 23.648C34.3672 24.0533 32.9378 24.256 31.3805 24.256C29.5352 24.256 27.8712 23.9733 26.3885 23.408C24.9058 22.832 23.6365 22.032 22.5805 21.008C21.5352 19.9733 20.7298 18.736 20.1645 17.296C19.5992 15.856 19.3165 14.272 19.3165 12.544C19.3165 10.7947 19.5885 9.20001 20.1325 7.76001C20.6872 6.32001 21.4712 5.08801 22.4845 4.06401C23.4978 3.02931 24.7298 2.22934 26.1805 1.66401C27.6312 1.09868 29.2525 0.81601 31.0445 0.81601C31.9512 0.81601 32.7938 0.88534 33.5725 1.02401C34.3512 1.15201 35.0712 1.34401 35.7325 1.60001C36.3938 1.84534 37.0072 2.14934 37.5725 2.51201C38.1378 2.86401 38.6658 3.26401 39.1565 3.71201L38.2765 5.12001C38.1378 5.33331 37.9565 5.47201 37.7325 5.53601C37.5192 5.58931 37.2792 5.53601 37.0125 5.37601C36.7565 5.22671 36.4632 5.04531 36.1325 4.83201C35.8018 4.61871 35.3965 4.41601 34.9165 4.22401C34.4472 4.02131 33.8872 3.85071 33.2365 3.71201C32.5965 3.57331 31.8338 3.50401 30.9485 3.50401C29.6578 3.50401 28.4898 3.71731 27.4445 4.14401C26.3992 4.56001 25.5085 5.16271 24.7725 5.95201C24.0365 6.73071 23.4712 7.68001 23.0765 8.80001C22.6818 9.90931 22.4845 11.1573 22.4845 12.544C22.4845 13.984 22.6872 15.2747 23.0925 16.416C23.5085 17.5467 24.0952 18.512 24.8525 19.312C25.6205 20.1013 26.5485 20.704 27.6365 21.12C28.7245 21.536 29.9458 21.744 31.3005 21.744C32.3672 21.744 33.3112 21.6267 34.1325 21.392C34.9645 21.1467 35.7752 20.8107 36.5645 20.384V15.344H32.9965C32.7938 15.344 32.6285 15.2853 32.5005 15.168C32.3832 15.0507 32.3245 14.9067 32.3245 14.736V12.976H39.3645Z" fill="white"/>
<path d="M56.6373 21.9459C56.7118 21.9459 56.7769 21.9791 56.8328 22.0453L57.3703 22.68C56.9608 23.1999 56.4628 23.6051 55.8764 23.8957C55.2946 24.1862 54.5895 24.3315 53.7611 24.3315C53.0444 24.3315 52.3928 24.1964 51.8064 23.9263C51.22 23.651 50.7197 23.2687 50.3055 22.7794C49.8913 22.2849 49.5701 21.6936 49.3421 21.0055C49.114 20.3173 49 19.5603 49 18.7346C49 17.9088 49.1187 17.1518 49.356 16.4637C49.5934 15.7755 49.9262 15.1842 50.3543 14.6898C50.7872 14.1953 51.3038 13.813 51.9041 13.5429C52.5045 13.2676 53.1677 13.13 53.8937 13.13C54.6058 13.13 55.2341 13.2549 55.7786 13.5046C56.3232 13.7544 56.8025 14.0934 57.2167 14.5216L56.7699 15.2021C56.742 15.253 56.7048 15.2964 56.6582 15.3321C56.6164 15.3626 56.5582 15.3779 56.4837 15.3779C56.3999 15.3779 56.2976 15.3295 56.1766 15.2327C56.0555 15.1307 55.8973 15.0186 55.7018 14.8962C55.5064 14.7739 55.262 14.6643 54.9688 14.5674C54.6756 14.4655 54.3149 14.4145 53.8868 14.4145C53.3702 14.4145 52.8978 14.5139 52.4696 14.7127C52.0414 14.9064 51.6714 15.1893 51.3596 15.5614C51.0524 15.9336 50.8128 16.3872 50.6406 16.9224C50.4684 17.4577 50.3823 18.0617 50.3823 18.7346C50.3823 19.4176 50.4707 20.0268 50.6475 20.562C50.829 21.0972 51.0734 21.5509 51.3805 21.923C51.6924 22.29 52.0577 22.5704 52.4766 22.7641C52.9001 22.9578 53.3562 23.0546 53.8449 23.0546C54.1427 23.0546 54.4103 23.0368 54.6477 23.0011C54.8897 22.9603 55.1108 22.8991 55.3109 22.8176C55.5157 22.736 55.7042 22.6341 55.8764 22.5117C56.0532 22.3843 56.2277 22.2339 56.3999 22.0606C56.4791 21.9842 56.5582 21.9459 56.6373 21.9459ZM59.7864 18.0158C60.0097 17.4857 60.2843 17.0728 60.6101 16.7772C60.9359 16.4764 61.3338 16.326 61.8039 16.326C61.9528 16.326 62.0948 16.3439 62.2297 16.3796C62.3694 16.4153 62.4927 16.4713 62.5997 16.5478L62.509 17.5647C62.481 17.6922 62.4112 17.7559 62.2995 17.7559C62.2344 17.7559 62.139 17.7406 62.0133 17.71C61.8877 17.6794 61.7457 17.6641 61.5875 17.6641C61.3641 17.6641 61.1639 17.6998 60.9871 17.7712C60.8149 17.8425 60.659 17.9496 60.5194 18.0923C60.3844 18.2299 60.2611 18.4032 60.1494 18.6122C60.0423 18.8161 59.9446 19.0506 59.8562 19.3157V24.2092H58.6065V16.4637H59.3186C59.4536 16.4637 59.5467 16.4917 59.5979 16.5478C59.6491 16.6039 59.684 16.7007 59.7026 16.8383L59.7864 18.0158ZM67.4159 20.7226C66.8434 20.7429 66.3547 20.7939 65.9498 20.8755C65.5496 20.9519 65.2215 21.0539 64.9655 21.1813C64.7142 21.3088 64.5303 21.4591 64.414 21.6324C64.3023 21.8058 64.2464 21.9995 64.2464 22.2135C64.2464 22.4174 64.2767 22.5933 64.3372 22.7411C64.3977 22.8889 64.4792 23.0113 64.5815 23.1081C64.6886 23.1999 64.8119 23.2687 64.9515 23.3146C65.0958 23.3554 65.2494 23.3758 65.4123 23.3758C65.631 23.3758 65.8312 23.3528 66.0127 23.3069C66.1942 23.256 66.364 23.1846 66.5223 23.0928C66.6852 23.0011 66.8388 22.8915 66.983 22.7641C67.132 22.6366 67.2762 22.4914 67.4159 22.3282V20.7226ZM63.4017 17.5571C63.7927 17.1442 64.2139 16.8358 64.6653 16.6319C65.1168 16.428 65.6171 16.326 66.1662 16.326C66.5618 16.326 66.9132 16.3974 67.2204 16.5401C67.5276 16.6829 67.7859 16.8817 67.9953 17.1365C68.2047 17.3914 68.363 17.6998 68.47 18.0617C68.577 18.4236 68.6306 18.8212 68.6306 19.2545V24.2092H68.0791C67.9581 24.2092 67.865 24.1888 67.7998 24.148C67.7347 24.1021 67.6835 24.0155 67.6462 23.888L67.5066 23.154C67.3205 23.3426 67.1389 23.5108 66.9621 23.6587C66.7852 23.8014 66.5991 23.9237 66.4036 24.0257C66.2081 24.1225 65.9987 24.1964 65.7753 24.2474C65.5566 24.3035 65.3122 24.3315 65.0423 24.3315C64.7677 24.3315 64.5094 24.2907 64.2674 24.2092C64.0254 24.1225 63.8136 23.9951 63.6321 23.8269C63.4553 23.6587 63.3133 23.4471 63.2063 23.1922C63.1039 22.9323 63.0527 22.6264 63.0527 22.2747C63.0527 21.9689 63.1295 21.6758 63.2831 21.3954C63.4366 21.11 63.6856 20.8576 64.03 20.6384C64.3744 20.4193 64.8235 20.2409 65.3774 20.1032C65.9312 19.9605 66.6107 19.8789 67.4159 19.8585V19.2545C67.4159 18.653 67.2972 18.1993 67.0598 17.8935C66.8225 17.5826 66.4757 17.4271 66.0196 17.4271C65.7125 17.4271 65.4542 17.4704 65.2447 17.5571C65.04 17.6386 64.8608 17.7329 64.7072 17.84C64.5583 17.9419 64.428 18.0362 64.3163 18.1229C64.2092 18.2044 64.1022 18.2452 63.9951 18.2452C63.9114 18.2452 63.8392 18.2223 63.7787 18.1764C63.7182 18.1254 63.667 18.0643 63.6251 17.9929L63.4017 17.5571ZM76.6416 17.6029V22.2518C76.6416 22.578 76.7137 22.8201 76.858 22.9782C77.0023 23.1362 77.1861 23.2152 77.4095 23.2152C77.5445 23.2152 77.6585 23.1973 77.7516 23.1617C77.8493 23.1209 77.9331 23.0776 78.0029 23.0317C78.0727 22.9858 78.1309 22.945 78.1774 22.9093C78.224 22.8686 78.2659 22.8482 78.3031 22.8482C78.345 22.8482 78.3776 22.8584 78.4008 22.8788C78.4287 22.8991 78.4567 22.9323 78.4846 22.9782L78.8476 23.6281C78.6335 23.8473 78.3752 24.0206 78.0727 24.148C77.7702 24.2703 77.4561 24.3315 77.1303 24.3315C76.5764 24.3315 76.1483 24.1608 75.8457 23.8192C75.5479 23.4777 75.399 22.9858 75.399 22.3435V17.6029H72.1247V24.2092H70.8751V17.6259L70.0932 17.5265C69.9955 17.501 69.914 17.4628 69.8489 17.4118C69.7884 17.3557 69.7581 17.2767 69.7581 17.1748V16.6166H70.8751V15.8673C70.8751 15.4238 70.931 15.0313 71.0426 14.6898C71.159 14.3432 71.3219 14.0526 71.5313 13.8181C71.7454 13.5786 72.0014 13.3976 72.2992 13.2753C72.5971 13.1529 72.9322 13.0918 73.3045 13.0918C73.621 13.0918 73.9119 13.1427 74.1772 13.2447L74.1492 13.9252C74.1399 14.0475 74.0771 14.1138 73.9607 14.124C73.849 14.1342 73.6978 14.1393 73.507 14.1393C73.2929 14.1393 73.0974 14.1699 72.9206 14.231C72.7484 14.2922 72.5994 14.3916 72.4738 14.5292C72.3481 14.6668 72.2504 14.8478 72.1806 15.0721C72.1154 15.2964 72.0828 15.5742 72.0828 15.9055V16.6166H75.4408L75.7201 14.2081C75.7387 14.1316 75.7713 14.0705 75.8178 14.0246C75.869 13.9736 75.9342 13.9481 76.0133 13.9481H76.6416V16.6166H78.6801V17.6029H76.6416ZM81.2852 16.4637V24.2092H80.0425V16.4637H81.2852ZM81.5505 14.0322C81.5505 14.1648 81.5249 14.2896 81.4737 14.4069C81.4271 14.519 81.362 14.621 81.2782 14.7127C81.1991 14.7994 81.1037 14.8682 80.992 14.9192C80.8849 14.9701 80.7709 14.9956 80.6499 14.9956C80.5289 14.9956 80.4149 14.9701 80.3078 14.9192C80.2054 14.8682 80.1147 14.7994 80.0356 14.7127C79.9564 14.621 79.8936 14.519 79.8471 14.4069C79.8005 14.2896 79.7773 14.1648 79.7773 14.0322C79.7773 13.8997 79.8005 13.7748 79.8471 13.6576C79.8936 13.5352 79.9564 13.4307 80.0356 13.3441C80.1147 13.2523 80.2054 13.181 80.3078 13.13C80.4149 13.079 80.5289 13.0535 80.6499 13.0535C80.7709 13.0535 80.8849 13.079 80.992 13.13C81.1037 13.181 81.1991 13.2523 81.2782 13.3441C81.362 13.4307 81.4271 13.5352 81.4737 13.6576C81.5249 13.7748 81.5505 13.8997 81.5505 14.0322ZM84.5 17.5877C84.6535 17.3991 84.8164 17.2283 84.9886 17.0754C85.1608 16.9224 85.3423 16.7925 85.5332 16.6854C85.7286 16.5733 85.9334 16.4892 86.1475 16.4331C86.3662 16.3719 86.6013 16.3413 86.8526 16.3413C87.2389 16.3413 87.5786 16.4127 87.8718 16.5554C88.1697 16.6931 88.4163 16.8919 88.6118 17.1518C88.8119 17.4067 88.9632 17.7151 89.0656 18.077C89.168 18.4389 89.2192 18.8391 89.2192 19.2774V24.2092H87.9696V19.2774C87.9696 18.6912 87.8462 18.2376 87.5996 17.9164C87.3576 17.5902 86.9876 17.4271 86.4896 17.4271C86.1219 17.4271 85.7775 17.5239 85.4564 17.7176C85.1399 17.9113 84.8467 18.1739 84.5768 18.5052V24.2092H83.3271V16.4637H84.0741C84.251 16.4637 84.3603 16.558 84.4022 16.7466L84.5 17.5877ZM93.5765 20.4244C93.8279 20.4244 94.0489 20.3861 94.2397 20.3097C94.4306 20.2332 94.5911 20.1262 94.7214 19.9885C94.8517 19.8509 94.9495 19.6878 95.0146 19.4992C95.0798 19.3055 95.1124 19.0939 95.1124 18.8646C95.1124 18.3905 94.9797 18.0133 94.7144 17.7329C94.4538 17.4526 94.0745 17.3124 93.5765 17.3124C93.0739 17.3124 92.6899 17.4526 92.4247 17.7329C92.164 18.0133 92.0337 18.3905 92.0337 18.8646C92.0337 19.0939 92.0663 19.3055 92.1314 19.4992C92.2013 19.6878 92.3013 19.8509 92.4316 19.9885C92.562 20.1262 92.7225 20.2332 92.9133 20.3097C93.1041 20.3861 93.3252 20.4244 93.5765 20.4244ZM95.8175 24.6297C95.8175 24.4411 95.7686 24.2882 95.6709 24.1709C95.5731 24.0537 95.4405 23.962 95.2729 23.8957C95.11 23.8294 94.9192 23.7835 94.7005 23.7581C94.4817 23.7275 94.249 23.7045 94.0024 23.6892C93.7604 23.6739 93.5137 23.6587 93.2624 23.6434C93.0111 23.6281 92.7691 23.6026 92.5363 23.5669C92.2757 23.6994 92.0616 23.8676 91.8941 24.0715C91.7312 24.2703 91.6498 24.5048 91.6498 24.775C91.6498 24.9483 91.6893 25.1089 91.7684 25.2567C91.8522 25.4096 91.9779 25.5396 92.1454 25.6466C92.313 25.7588 92.5224 25.8454 92.7737 25.9066C93.0297 25.9729 93.3299 26.006 93.6743 26.006C94.0094 26.006 94.3095 25.9729 94.5748 25.9066C94.8401 25.8403 95.0635 25.746 95.245 25.6237C95.4312 25.5014 95.5731 25.3561 95.6709 25.1879C95.7686 25.0197 95.8175 24.8336 95.8175 24.6297ZM97.081 16.7695V17.2742C97.081 17.4424 96.9833 17.5494 96.7878 17.5953L95.985 17.71C96.1432 18.0464 96.2224 18.4185 96.2224 18.8263C96.2224 19.2035 96.1549 19.5476 96.0199 19.8585C95.8896 20.1644 95.7081 20.4269 95.4754 20.6461C95.2427 20.8653 94.9634 21.0335 94.6377 21.1507C94.3119 21.268 93.9582 21.3266 93.5765 21.3266C93.2461 21.3266 92.9343 21.2833 92.6411 21.1966C92.4921 21.2986 92.3781 21.4082 92.299 21.5254C92.2199 21.6375 92.1803 21.7522 92.1803 21.8695C92.1803 22.053 92.2478 22.1932 92.3828 22.29C92.5224 22.3818 92.7039 22.448 92.9273 22.4888C93.1507 22.5296 93.4043 22.5551 93.6882 22.5653C93.9768 22.5755 94.27 22.5933 94.5678 22.6188C94.8704 22.6392 95.1636 22.6774 95.4475 22.7335C95.736 22.7895 95.992 22.8813 96.2154 23.0087C96.4388 23.1362 96.618 23.312 96.7529 23.5363C96.8925 23.7606 96.9624 24.0512 96.9624 24.408C96.9624 24.7393 96.8856 25.0604 96.732 25.3714C96.5831 25.6823 96.3666 25.9576 96.0827 26.1972C95.7988 26.4418 95.4498 26.6355 95.0356 26.7783C94.626 26.9261 94.1629 27 93.6463 27C93.1297 27 92.6783 26.9439 92.292 26.8318C91.9057 26.7196 91.5846 26.5693 91.3286 26.3807C91.0726 26.1921 90.8795 25.9729 90.7492 25.7231C90.6235 25.4784 90.5607 25.221 90.5607 24.9508C90.5607 24.5685 90.6701 24.2449 90.8888 23.9798C91.1076 23.7147 91.4077 23.5032 91.7894 23.3452C91.5799 23.2432 91.4124 23.1081 91.2867 22.9399C91.1657 22.7666 91.1052 22.5347 91.1052 22.2441C91.1052 22.132 91.1238 22.0173 91.1611 21.9001C91.1983 21.7777 91.2542 21.6579 91.3286 21.5407C91.4077 21.4184 91.5031 21.3037 91.6148 21.1966C91.7265 21.0896 91.8569 20.9953 92.0058 20.9137C91.6567 20.6996 91.3845 20.4167 91.189 20.065C90.9935 19.7082 90.8958 19.2953 90.8958 18.8263C90.8958 18.4491 90.961 18.1076 91.0913 17.8017C91.2262 17.4908 91.4124 17.2283 91.6498 17.0142C91.8871 16.795 92.1687 16.6268 92.4945 16.5096C92.8249 16.3923 93.1856 16.3337 93.5765 16.3337C93.8837 16.3337 94.1699 16.3719 94.4352 16.4484C94.7005 16.5198 94.9425 16.6268 95.1612 16.7695H97.081ZM104.11 24.3315C103.551 24.3315 103.121 24.1608 102.818 23.8192C102.52 23.4777 102.372 22.9858 102.372 22.3435V17.6029H101.52C101.445 17.6029 101.383 17.58 101.331 17.5341C101.28 17.4832 101.255 17.4067 101.255 17.3048V16.7619L102.413 16.6013L102.7 14.2081C102.714 14.1316 102.744 14.0705 102.79 14.0246C102.842 13.9736 102.907 13.9481 102.986 13.9481H103.614V16.6166H105.66V17.6029H103.614V22.2518C103.614 22.578 103.686 22.8201 103.831 22.9782C103.975 23.1362 104.161 23.2152 104.389 23.2152C104.519 23.2152 104.631 23.1973 104.724 23.1617C104.822 23.1209 104.906 23.0776 104.975 23.0317C105.045 22.9858 105.103 22.945 105.15 22.9093C105.201 22.8686 105.245 22.8482 105.283 22.8482C105.348 22.8482 105.406 22.8915 105.457 22.9782L105.82 23.6281C105.606 23.8473 105.348 24.0206 105.045 24.148C104.743 24.2703 104.431 24.3315 104.11 24.3315ZM109.882 16.3413C110.399 16.3413 110.864 16.4356 111.278 16.6242C111.692 16.8129 112.046 17.0805 112.339 17.4271C112.633 17.7737 112.856 18.1942 113.01 18.6887C113.168 19.178 113.247 19.726 113.247 20.3326C113.247 20.9443 113.168 21.4948 113.01 21.9842C112.856 22.4735 112.633 22.8915 112.339 23.2381C112.046 23.5847 111.692 23.8524 111.278 24.041C110.864 24.2245 110.399 24.3162 109.882 24.3162C109.361 24.3162 108.891 24.2245 108.472 24.041C108.058 23.8524 107.704 23.5847 107.411 23.2381C107.118 22.8915 106.892 22.4735 106.734 21.9842C106.58 21.4948 106.503 20.9443 106.503 20.3326C106.503 19.726 106.58 19.178 106.734 18.6887C106.892 18.1942 107.118 17.7737 107.411 17.4271C107.704 17.0805 108.058 16.8129 108.472 16.6242C108.891 16.4356 109.361 16.3413 109.882 16.3413ZM109.882 23.2534C110.58 23.2534 111.101 22.9985 111.446 22.4888C111.79 21.974 111.962 21.2578 111.962 20.3403C111.962 19.4176 111.79 18.6989 111.446 18.1841C111.101 17.6692 110.58 17.4118 109.882 17.4118C109.528 17.4118 109.219 17.4781 108.954 17.6106C108.693 17.7431 108.474 17.9343 108.297 18.1841C108.125 18.4338 107.995 18.7422 107.906 19.1092C107.823 19.4711 107.781 19.8815 107.781 20.3403C107.781 21.2578 107.953 21.974 108.297 22.4888C108.646 22.9985 109.175 23.2534 109.882 23.2534ZM121.642 18.9334C122.028 18.9334 122.368 18.8773 122.661 18.7652C122.959 18.653 123.208 18.4975 123.408 18.2987C123.613 18.0948 123.766 17.8527 123.869 17.5724C123.971 17.292 124.022 16.9836 124.022 16.6472C124.022 15.9488 123.824 15.4034 123.429 15.0109C123.038 14.6184 122.442 14.4222 121.642 14.4222H120.036V18.9334H121.642ZM121.642 13.2523C122.275 13.2523 122.824 13.3339 123.289 13.497C123.759 13.655 124.148 13.8818 124.455 14.1775C124.762 14.4731 124.99 14.83 125.139 15.248C125.293 15.6659 125.37 16.1323 125.37 16.6472C125.37 17.1569 125.288 17.6233 125.125 18.0464C124.962 18.4695 124.723 18.834 124.406 19.1398C124.094 19.4457 123.706 19.6852 123.24 19.8585C122.78 20.0268 122.247 20.1109 121.642 20.1109H120.036V24.2092H118.689V13.2523H121.642ZM131.146 19.4915C131.146 19.1755 131.104 18.8875 131.021 18.6275C130.942 18.3625 130.823 18.1356 130.665 17.947C130.511 17.7533 130.323 17.6055 130.099 17.5036C129.876 17.3965 129.622 17.343 129.338 17.343C128.743 17.343 128.27 17.5341 127.921 17.9164C127.577 18.2936 127.363 18.8187 127.279 19.4915H131.146ZM132.152 23.1234C131.998 23.3273 131.814 23.5057 131.6 23.6587C131.386 23.8065 131.156 23.9288 130.909 24.0257C130.667 24.1225 130.416 24.1939 130.155 24.2398C129.894 24.2907 129.636 24.3162 129.38 24.3162C128.892 24.3162 128.44 24.227 128.026 24.0486C127.616 23.8651 127.26 23.6 126.958 23.2534C126.66 22.9017 126.427 22.4684 126.26 21.9536C126.092 21.4387 126.008 20.8474 126.008 20.1797C126.008 19.6394 126.083 19.1347 126.232 18.6658C126.385 18.1968 126.604 17.7916 126.888 17.45C127.172 17.1034 127.519 16.8332 127.928 16.6395C128.338 16.4407 128.798 16.3413 129.31 16.3413C129.734 16.3413 130.125 16.4204 130.483 16.5784C130.846 16.7313 131.158 16.9556 131.419 17.2512C131.684 17.5418 131.891 17.9037 132.04 18.337C132.189 18.7652 132.263 19.2545 132.263 19.805C132.263 20.0191 132.242 20.1618 132.201 20.2332C132.159 20.3046 132.08 20.3403 131.963 20.3403H127.237C127.251 20.8296 127.311 21.2552 127.418 21.6171C127.53 21.9791 127.684 22.2824 127.879 22.527C128.075 22.7666 128.307 22.9476 128.577 23.0699C128.847 23.1871 129.15 23.2458 129.485 23.2458C129.797 23.2458 130.064 23.2075 130.288 23.1311C130.516 23.0495 130.711 22.9629 130.874 22.8711C131.037 22.7794 131.172 22.6952 131.279 22.6188C131.391 22.5372 131.486 22.4964 131.565 22.4964C131.668 22.4964 131.747 22.5398 131.803 22.6264L132.152 23.1234ZM134.97 18.0158C135.193 17.4857 135.468 17.0728 135.793 16.7772C136.119 16.4764 136.517 16.326 136.987 16.326C137.136 16.326 137.278 16.3439 137.413 16.3796C137.553 16.4153 137.676 16.4713 137.783 16.5478L137.692 17.5647C137.664 17.6922 137.595 17.7559 137.483 17.7559C137.418 17.7559 137.322 17.7406 137.197 17.71C137.071 17.6794 136.929 17.6641 136.771 17.6641C136.547 17.6641 136.347 17.6998 136.17 17.7712C135.998 17.8425 135.842 17.9496 135.703 18.0923C135.568 18.2299 135.444 18.4032 135.333 18.6122C135.226 18.8161 135.128 19.0506 135.04 19.3157V24.2092H133.79V16.4637H134.502C134.637 16.4637 134.73 16.4917 134.781 16.5478C134.832 16.6039 134.867 16.7007 134.886 16.8383L134.97 18.0158ZM139.336 24.2092V17.6259L138.554 17.5265C138.457 17.501 138.375 17.4628 138.31 17.4118C138.25 17.3557 138.219 17.2767 138.219 17.1748V16.6166H139.336V15.8673C139.336 15.4238 139.392 15.0313 139.504 14.6898C139.62 14.3432 139.783 14.0526 139.993 13.8181C140.207 13.5786 140.463 13.3976 140.76 13.2753C141.058 13.1529 141.393 13.0918 141.766 13.0918C142.082 13.0918 142.373 13.1427 142.638 13.2447L142.61 13.9252C142.601 14.0475 142.538 14.1138 142.422 14.124C142.31 14.1342 142.159 14.1393 141.968 14.1393C141.754 14.1393 141.559 14.1699 141.382 14.231C141.21 14.2922 141.061 14.3916 140.935 14.5292C140.809 14.6668 140.712 14.8478 140.642 15.0721C140.577 15.2964 140.544 15.5742 140.544 15.9055V16.6166H142.583V17.6029H140.586V24.2092H139.336ZM148.272 19.4915C148.272 19.1755 148.23 18.8875 148.146 18.6275C148.067 18.3625 147.949 18.1356 147.79 17.947C147.637 17.7533 147.448 17.6055 147.225 17.5036C147.002 17.3965 146.748 17.343 146.464 17.343C145.868 17.343 145.396 17.5341 145.047 17.9164C144.702 18.2936 144.488 18.8187 144.405 19.4915H148.272ZM149.277 23.1234C149.124 23.3273 148.94 23.5057 148.726 23.6587C148.512 23.8065 148.281 23.9288 148.035 24.0257C147.793 24.1225 147.541 24.1939 147.281 24.2398C147.02 24.2907 146.762 24.3162 146.506 24.3162C146.017 24.3162 145.566 24.227 145.152 24.0486C144.742 23.8651 144.386 23.6 144.083 23.2534C143.786 22.9017 143.553 22.4684 143.385 21.9536C143.218 21.4387 143.134 20.8474 143.134 20.1797C143.134 19.6394 143.209 19.1347 143.357 18.6658C143.511 18.1968 143.73 17.7916 144.014 17.45C144.298 17.1034 144.644 16.8332 145.054 16.6395C145.463 16.4407 145.924 16.3413 146.436 16.3413C146.86 16.3413 147.251 16.4204 147.609 16.5784C147.972 16.7313 148.284 16.9556 148.544 17.2512C148.81 17.5418 149.017 17.9037 149.166 18.337C149.315 18.7652 149.389 19.2545 149.389 19.805C149.389 20.0191 149.368 20.1618 149.326 20.2332C149.284 20.3046 149.205 20.3403 149.089 20.3403H144.363C144.377 20.8296 144.437 21.2552 144.544 21.6171C144.656 21.9791 144.81 22.2824 145.005 22.527C145.2 22.7666 145.433 22.9476 145.703 23.0699C145.973 23.1871 146.276 23.2458 146.611 23.2458C146.922 23.2458 147.19 23.2075 147.413 23.1311C147.642 23.0495 147.837 22.9629 148 22.8711C148.163 22.7794 148.298 22.6952 148.405 22.6188C148.516 22.5372 148.612 22.4964 148.691 22.4964C148.793 22.4964 148.873 22.5398 148.928 22.6264L149.277 23.1234ZM155.836 17.84C155.799 17.8961 155.762 17.9394 155.724 17.97C155.687 18.0005 155.636 18.0158 155.571 18.0158C155.501 18.0158 155.424 17.9853 155.34 17.9241C155.257 17.8578 155.152 17.7865 155.026 17.71C154.905 17.6335 154.754 17.5647 154.573 17.5036C154.396 17.4373 154.177 17.4042 153.916 17.4042C153.567 17.4042 153.26 17.473 152.995 17.6106C152.73 17.7431 152.506 17.9368 152.325 18.1917C152.148 18.4466 152.013 18.755 151.92 19.1169C151.831 19.4788 151.787 19.884 151.787 20.3326C151.787 20.8016 151.836 21.2196 151.934 21.5866C152.031 21.9485 152.169 22.2543 152.346 22.5041C152.527 22.7488 152.744 22.9374 152.995 23.0699C153.251 23.1973 153.537 23.2611 153.854 23.2611C154.156 23.2611 154.405 23.2228 154.6 23.1464C154.796 23.0648 154.957 22.9756 155.082 22.8788C155.213 22.7819 155.32 22.6952 155.403 22.6188C155.492 22.5372 155.578 22.4964 155.662 22.4964C155.764 22.4964 155.843 22.5398 155.899 22.6264L156.248 23.1234C156.094 23.3324 155.92 23.5108 155.724 23.6587C155.529 23.8065 155.317 23.9314 155.089 24.0333C154.866 24.1302 154.631 24.2015 154.384 24.2474C154.137 24.2933 153.886 24.3162 153.63 24.3162C153.188 24.3162 152.776 24.227 152.394 24.0486C152.017 23.8702 151.689 23.6128 151.41 23.2764C151.131 22.9348 150.912 22.5168 150.754 22.0224C150.596 21.5279 150.517 20.9647 150.517 20.3326C150.517 19.7566 150.589 19.2239 150.733 18.7346C150.882 18.2452 151.096 17.8247 151.375 17.473C151.659 17.1161 152.006 16.8383 152.415 16.6395C152.83 16.4407 153.304 16.3413 153.84 16.3413C154.338 16.3413 154.775 16.4305 155.152 16.609C155.534 16.7823 155.871 17.0295 156.164 17.3506L155.836 17.84ZM164.145 24.2092H162.902V17.6029H159.258V22.2518C159.258 22.578 159.33 22.8201 159.474 22.9782C159.619 23.1362 159.805 23.2152 160.033 23.2152C160.163 23.2152 160.275 23.1973 160.368 23.1617C160.466 23.1209 160.55 23.0776 160.619 23.0317C160.689 22.9858 160.747 22.945 160.794 22.9093C160.845 22.8686 160.889 22.8482 160.927 22.8482C160.992 22.8482 161.05 22.8915 161.101 22.9782L161.464 23.6281C161.25 23.8473 160.992 24.0206 160.689 24.148C160.387 24.2703 160.075 24.3315 159.754 24.3315C159.195 24.3315 158.765 24.1608 158.462 23.8192C158.164 23.4777 158.015 22.9858 158.015 22.3435V17.6029H157.164C157.089 17.6029 157.026 17.58 156.975 17.5341C156.924 17.4832 156.898 17.4067 156.898 17.3048V16.7619L158.057 16.5937L158.344 14.2081C158.357 14.1316 158.388 14.0705 158.434 14.0246C158.485 13.9736 158.551 13.9481 158.63 13.9481H159.258V16.6166H164.145V24.2092ZM164.452 13.9787C164.452 14.1112 164.426 14.2361 164.375 14.3534C164.329 14.4655 164.263 14.5649 164.18 14.6516C164.101 14.7382 164.007 14.807 163.9 14.858C163.793 14.909 163.679 14.9345 163.558 14.9345C163.437 14.9345 163.323 14.909 163.216 14.858C163.114 14.807 163.023 14.7382 162.944 14.6516C162.865 14.5649 162.802 14.4655 162.756 14.3534C162.709 14.2361 162.686 14.1112 162.686 13.9787C162.686 13.8462 162.709 13.7213 162.756 13.604C162.802 13.4817 162.865 13.3772 162.944 13.2906C163.023 13.1988 163.114 13.1274 163.216 13.0765C163.323 13.0255 163.437 13 163.558 13C163.679 13 163.793 13.0255 163.9 13.0765C164.007 13.1274 164.101 13.1988 164.18 13.2906C164.263 13.3772 164.329 13.4817 164.375 13.604C164.426 13.7213 164.452 13.8462 164.452 13.9787ZM169.167 16.3413C169.683 16.3413 170.149 16.4356 170.563 16.6242C170.977 16.8129 171.331 17.0805 171.624 17.4271C171.917 17.7737 172.14 18.1942 172.294 18.6887C172.452 19.178 172.531 19.726 172.531 20.3326C172.531 20.9443 172.452 21.4948 172.294 21.9842C172.14 22.4735 171.917 22.8915 171.624 23.2381C171.331 23.5847 170.977 23.8524 170.563 24.041C170.149 24.2245 169.683 24.3162 169.167 24.3162C168.645 24.3162 168.175 24.2245 167.756 24.041C167.342 23.8524 166.988 23.5847 166.695 23.2381C166.402 22.8915 166.176 22.4735 166.018 21.9842C165.864 21.4948 165.788 20.9443 165.788 20.3326C165.788 19.726 165.864 19.178 166.018 18.6887C166.176 18.1942 166.402 17.7737 166.695 17.4271C166.988 17.0805 167.342 16.8129 167.756 16.6242C168.175 16.4356 168.645 16.3413 169.167 16.3413ZM169.167 23.2534C169.865 23.2534 170.386 22.9985 170.73 22.4888C171.075 21.974 171.247 21.2578 171.247 20.3403C171.247 19.4176 171.075 18.6989 170.73 18.1841C170.386 17.6692 169.865 17.4118 169.167 17.4118C168.813 17.4118 168.503 17.4781 168.238 17.6106C167.977 17.7431 167.759 17.9343 167.582 18.1841C167.41 18.4338 167.279 18.7422 167.191 19.1092C167.107 19.4711 167.065 19.8815 167.065 20.3403C167.065 21.2578 167.237 21.974 167.582 22.4888C167.931 22.9985 168.459 23.2534 169.167 23.2534ZM175.281 17.5877C175.434 17.3991 175.597 17.2283 175.769 17.0754C175.942 16.9224 176.123 16.7925 176.314 16.6854C176.509 16.5733 176.714 16.4892 176.928 16.4331C177.147 16.3719 177.382 16.3413 177.633 16.3413C178.02 16.3413 178.359 16.4127 178.653 16.5554C178.95 16.6931 179.197 16.8919 179.393 17.1518C179.593 17.4067 179.744 17.7151 179.846 18.077C179.949 18.4389 180 18.8391 180 19.2774V24.2092H178.75V19.2774C178.75 18.6912 178.627 18.2376 178.38 17.9164C178.138 17.5902 177.768 17.4271 177.27 17.4271C176.903 17.4271 176.558 17.5239 176.237 17.7176C175.921 17.9113 175.628 18.1739 175.358 18.5052V24.2092H174.108V16.4637H174.855C175.032 16.4637 175.141 16.558 175.183 16.7466L175.281 17.5877Z" fill="white"/>
</svg>
