<svg width="172" height="10" viewBox="0 0 172 10" fill="none" xmlns="http://www.w3.org/2000/svg">
<path d="M1.256 4.17H1.694C1.846 4.17 1.968 4.152 2.06 4.116C2.152 4.076 2.236 4.01 2.312 3.918L5.174 0.677999C5.254 0.573999 5.338 0.501999 5.426 0.461999C5.514 0.421999 5.622 0.401999 5.75 0.401999H6.734L3.458 4.104C3.378 4.2 3.3 4.28 3.224 4.344C3.152 4.404 3.074 4.454 2.99 4.494C3.098 4.53 3.196 4.584 3.284 4.656C3.372 4.724 3.458 4.814 3.542 4.926L6.962 9H5.954C5.878 9 5.812 8.996 5.756 8.988C5.704 8.976 5.658 8.96 5.618 8.94C5.578 8.916 5.542 8.89 5.51 8.862C5.482 8.83 5.454 8.794 5.426 8.754L2.462 5.34C2.382 5.24 2.296 5.17 2.204 5.13C2.112 5.086 1.972 5.064 1.784 5.064H1.256V9H0.0980001V0.401999H1.256V4.17ZM13.3473 8.052L13.3413 9H8.04331V0.401999H13.3413V1.35H9.20731V4.206H12.5553V5.118H9.20731V8.052H13.3473ZM20.2731 8.052L20.2671 9H14.9691V0.401999H20.2671V1.35H16.1331V4.206H19.4811V5.118H16.1331V8.052H20.2731ZM24.2769 4.566C24.6129 4.566 24.9089 4.526 25.1649 4.446C25.4249 4.362 25.6409 4.246 25.8129 4.098C25.9889 3.946 26.1209 3.766 26.2089 3.558C26.2969 3.35 26.3409 3.12 26.3409 2.868C26.3409 2.356 26.1729 1.97 25.8369 1.71C25.5009 1.45 24.9969 1.32 24.3249 1.32H23.0529V4.566H24.2769ZM28.2489 9H27.2169C27.0049 9 26.8489 8.918 26.7489 8.754L24.5169 5.682C24.4489 5.586 24.3749 5.518 24.2949 5.478C24.2189 5.434 24.0989 5.412 23.9349 5.412H23.0529V9H21.8949V0.401999H24.3249C24.8689 0.401999 25.3389 0.457999 25.7349 0.569999C26.1309 0.678 26.4569 0.836 26.7129 1.044C26.9729 1.252 27.1649 1.504 27.2889 1.8C27.4129 2.092 27.4749 2.42 27.4749 2.784C27.4749 3.088 27.4269 3.372 27.3309 3.636C27.2349 3.9 27.0949 4.138 26.9109 4.35C26.7309 4.558 26.5089 4.736 26.2449 4.884C25.9849 5.032 25.6889 5.144 25.3569 5.22C25.5049 5.304 25.6329 5.426 25.7409 5.586L28.2489 9ZM34.9511 1.38H32.1671V9H31.0091V1.38H28.2191V0.401999H34.9511V1.38ZM43.1929 0.401999V9H42.0289V5.088H37.3909V9H36.2269V0.401999H37.3909V4.236H42.0289V0.401999H43.1929ZM49.957 5.808L48.607 2.31C48.567 2.206 48.525 2.086 48.481 1.95C48.437 1.81 48.395 1.662 48.355 1.506C48.271 1.83 48.185 2.1 48.097 2.316L46.747 5.808H49.957ZM52.381 9H51.481C51.377 9 51.293 8.974 51.229 8.922C51.165 8.87 51.117 8.804 51.085 8.724L50.281 6.648H46.423L45.619 8.724C45.595 8.796 45.549 8.86 45.481 8.916C45.413 8.972 45.329 9 45.229 9H44.329L47.767 0.401999H48.943L52.381 9ZM60.4781 0.401999V9H59.8961C59.8041 9 59.7261 8.984 59.6621 8.952C59.6021 8.92 59.5421 8.866 59.4821 8.79L54.5081 2.31C54.5161 2.41 54.5221 2.508 54.5261 2.604C54.5301 2.7 54.5321 2.79 54.5321 2.874V9H53.5121V0.401999H54.1121C54.1641 0.401999 54.2081 0.405999 54.2441 0.413999C54.2801 0.418 54.3121 0.427999 54.3401 0.443999C54.3681 0.455999 54.3961 0.476 54.4241 0.504C54.4521 0.528 54.4821 0.559999 54.5141 0.599999L59.4881 7.074C59.4801 6.97 59.4721 6.87 59.4641 6.774C59.4601 6.674 59.4581 6.58 59.4581 6.492V0.401999H60.4781ZM72.7304 4.866V8.166C72.2984 8.478 71.8364 8.712 71.3444 8.868C70.8564 9.02 70.3204 9.096 69.7364 9.096C69.0444 9.096 68.4204 8.99 67.8644 8.778C67.3084 8.562 66.8324 8.262 66.4364 7.878C66.0444 7.49 65.7424 7.026 65.5304 6.486C65.3184 5.946 65.2124 5.352 65.2124 4.704C65.2124 4.048 65.3144 3.45 65.5184 2.91C65.7264 2.37 66.0204 1.908 66.4004 1.524C66.7804 1.136 67.2424 0.836 67.7864 0.624C68.3304 0.411999 68.9384 0.305999 69.6104 0.305999C69.9504 0.305999 70.2664 0.331999 70.5584 0.383999C70.8504 0.432 71.1204 0.504 71.3684 0.599999C71.6164 0.691999 71.8464 0.806 72.0584 0.942C72.2704 1.074 72.4684 1.224 72.6524 1.392L72.3224 1.92C72.2704 2 72.2024 2.052 72.1184 2.076C72.0384 2.096 71.9484 2.076 71.8484 2.016C71.7524 1.96 71.6424 1.892 71.5184 1.812C71.3944 1.732 71.2424 1.656 71.0624 1.584C70.8864 1.508 70.6764 1.444 70.4324 1.392C70.1924 1.34 69.9064 1.314 69.5744 1.314C69.0904 1.314 68.6524 1.394 68.2604 1.554C67.8684 1.71 67.5344 1.936 67.2584 2.232C66.9824 2.524 66.7704 2.88 66.6224 3.3C66.4744 3.716 66.4004 4.184 66.4004 4.704C66.4004 5.244 66.4764 5.728 66.6284 6.156C66.7844 6.58 67.0044 6.942 67.2884 7.242C67.5764 7.538 67.9244 7.764 68.3324 7.92C68.7404 8.076 69.1984 8.154 69.7064 8.154C70.1064 8.154 70.4604 8.11 70.7684 8.022C71.0804 7.93 71.3844 7.804 71.6804 7.644V5.754H70.3424C70.2664 5.754 70.2044 5.732 70.1564 5.688C70.1124 5.644 70.0904 5.59 70.0904 5.526V4.866H72.7304ZM82.4561 4.704C82.4561 5.348 82.3541 5.94 82.1501 6.48C81.9461 7.016 81.6581 7.478 81.2861 7.866C80.9141 8.254 80.4661 8.556 79.9421 8.772C79.4221 8.984 78.8461 9.09 78.2141 9.09C77.5821 9.09 77.0061 8.984 76.4861 8.772C75.9661 8.556 75.5201 8.254 75.1481 7.866C74.7761 7.478 74.4881 7.016 74.2841 6.48C74.0801 5.94 73.9781 5.348 73.9781 4.704C73.9781 4.06 74.0801 3.47 74.2841 2.934C74.4881 2.394 74.7761 1.93 75.1481 1.542C75.5201 1.15 75.9661 0.845999 76.4861 0.629999C77.0061 0.413999 77.5821 0.305999 78.2141 0.305999C78.8461 0.305999 79.4221 0.413999 79.9421 0.629999C80.4661 0.845999 80.9141 1.15 81.2861 1.542C81.6581 1.93 81.9461 2.394 82.1501 2.934C82.3541 3.47 82.4561 4.06 82.4561 4.704ZM81.2621 4.704C81.2621 4.176 81.1901 3.702 81.0461 3.282C80.9021 2.862 80.6981 2.508 80.4341 2.22C80.1701 1.928 79.8501 1.704 79.4741 1.548C79.0981 1.392 78.6781 1.314 78.2141 1.314C77.7541 1.314 77.3361 1.392 76.9601 1.548C76.5841 1.704 76.2621 1.928 75.9941 2.22C75.7301 2.508 75.5261 2.862 75.3821 3.282C75.2381 3.702 75.1661 4.176 75.1661 4.704C75.1661 5.232 75.2381 5.706 75.3821 6.126C75.5261 6.542 75.7301 6.896 75.9941 7.188C76.2621 7.476 76.5841 7.698 76.9601 7.854C77.3361 8.006 77.7541 8.082 78.2141 8.082C78.6781 8.082 79.0981 8.006 79.4741 7.854C79.8501 7.698 80.1701 7.476 80.4341 7.188C80.6981 6.896 80.9021 6.542 81.0461 6.126C81.1901 5.706 81.2621 5.232 81.2621 4.704ZM86.6594 4.86C86.9914 4.86 87.2834 4.816 87.5354 4.728C87.7914 4.64 88.0054 4.518 88.1774 4.362C88.3534 4.202 88.4854 4.012 88.5734 3.792C88.6614 3.572 88.7054 3.33 88.7054 3.066C88.7054 2.518 88.5354 2.09 88.1954 1.782C87.8594 1.474 87.3474 1.32 86.6594 1.32H85.2794V4.86H86.6594ZM86.6594 0.401999C87.2034 0.401999 87.6754 0.466 88.0754 0.594C88.4794 0.717999 88.8134 0.895999 89.0774 1.128C89.3414 1.36 89.5374 1.64 89.6654 1.968C89.7974 2.296 89.8634 2.662 89.8634 3.066C89.8634 3.466 89.7934 3.832 89.6534 4.164C89.5134 4.496 89.3074 4.782 89.0354 5.022C88.7674 5.262 88.4334 5.45 88.0334 5.586C87.6374 5.718 87.1794 5.784 86.6594 5.784H85.2794V9H84.1214V0.401999H86.6594ZM95.2968 5.808L93.9468 2.31C93.9068 2.206 93.8648 2.086 93.8208 1.95C93.7768 1.81 93.7348 1.662 93.6948 1.506C93.6108 1.83 93.5248 2.1 93.4368 2.316L92.0868 5.808H95.2968ZM97.7208 9H96.8208C96.7168 9 96.6328 8.974 96.5688 8.922C96.5048 8.87 96.4568 8.804 96.4248 8.724L95.6208 6.648H91.7628L90.9588 8.724C90.9348 8.796 90.8888 8.86 90.8208 8.916C90.7528 8.972 90.6688 9 90.5688 9H89.6688L93.1068 0.401999H94.2828L97.7208 9ZM103.73 8.022V9H98.8519V0.401999H100.01V8.022H103.73ZM109.582 5.808L108.232 2.31C108.192 2.206 108.15 2.086 108.106 1.95C108.062 1.81 108.02 1.662 107.98 1.506C107.896 1.83 107.81 2.1 107.722 2.316L106.372 5.808H109.582ZM112.006 9H111.106C111.002 9 110.918 8.974 110.854 8.922C110.79 8.87 110.742 8.804 110.71 8.724L109.906 6.648H106.048L105.244 8.724C105.22 8.796 105.174 8.86 105.106 8.916C105.038 8.972 104.954 9 104.854 9H103.954L107.392 0.401999H108.568L112.006 9ZM114.295 4.17H114.733C114.885 4.17 115.007 4.152 115.099 4.116C115.191 4.076 115.275 4.01 115.351 3.918L118.213 0.677999C118.293 0.573999 118.377 0.501999 118.465 0.461999C118.553 0.421999 118.661 0.401999 118.789 0.401999H119.773L116.497 4.104C116.417 4.2 116.339 4.28 116.263 4.344C116.191 4.404 116.113 4.454 116.029 4.494C116.137 4.53 116.235 4.584 116.323 4.656C116.411 4.724 116.497 4.814 116.581 4.926L120.001 9H118.993C118.917 9 118.851 8.996 118.795 8.988C118.743 8.976 118.697 8.96 118.657 8.94C118.617 8.916 118.581 8.89 118.549 8.862C118.521 8.83 118.493 8.794 118.465 8.754L115.501 5.34C115.421 5.24 115.335 5.17 115.243 5.13C115.151 5.086 115.011 5.064 114.823 5.064H114.295V9H113.137V0.401999H114.295V4.17ZM123.464 4.566C123.8 4.566 124.096 4.526 124.352 4.446C124.612 4.362 124.828 4.246 125 4.098C125.176 3.946 125.308 3.766 125.396 3.558C125.484 3.35 125.528 3.12 125.528 2.868C125.528 2.356 125.36 1.97 125.024 1.71C124.688 1.45 124.184 1.32 123.512 1.32H122.24V4.566H123.464ZM127.436 9H126.404C126.192 9 126.036 8.918 125.936 8.754L123.704 5.682C123.636 5.586 123.562 5.518 123.482 5.478C123.406 5.434 123.286 5.412 123.122 5.412H122.24V9H121.082V0.401999H123.512C124.056 0.401999 124.526 0.457999 124.922 0.569999C125.318 0.678 125.644 0.836 125.9 1.044C126.16 1.252 126.352 1.504 126.476 1.8C126.6 2.092 126.662 2.42 126.662 2.784C126.662 3.088 126.614 3.372 126.518 3.636C126.422 3.9 126.282 4.138 126.098 4.35C125.918 4.558 125.696 4.736 125.432 4.884C125.172 5.032 124.876 5.144 124.544 5.22C124.692 5.304 124.82 5.426 124.928 5.586L127.436 9ZM129.77 9H128.606V0.401999H129.77V9ZM136.367 1.746C136.331 1.806 136.291 1.852 136.247 1.884C136.207 1.912 136.157 1.926 136.097 1.926C136.029 1.926 135.949 1.892 135.857 1.824C135.765 1.756 135.649 1.682 135.509 1.602C135.373 1.518 135.207 1.442 135.011 1.374C134.819 1.306 134.585 1.272 134.309 1.272C134.049 1.272 133.819 1.308 133.619 1.38C133.423 1.448 133.257 1.542 133.121 1.662C132.989 1.782 132.889 1.924 132.821 2.088C132.753 2.248 132.719 2.422 132.719 2.61C132.719 2.85 132.777 3.05 132.893 3.21C133.013 3.366 133.169 3.5 133.361 3.612C133.557 3.724 133.777 3.822 134.021 3.906C134.269 3.986 134.521 4.07 134.777 4.158C135.037 4.246 135.289 4.346 135.533 4.458C135.781 4.566 136.001 4.704 136.193 4.872C136.389 5.04 136.545 5.246 136.661 5.49C136.781 5.734 136.841 6.034 136.841 6.39C136.841 6.766 136.777 7.12 136.649 7.452C136.521 7.78 136.333 8.066 136.085 8.31C135.841 8.554 135.539 8.746 135.179 8.886C134.823 9.026 134.417 9.096 133.961 9.096C133.401 9.096 132.893 8.996 132.437 8.796C131.981 8.592 131.591 8.318 131.267 7.974L131.603 7.422C131.635 7.378 131.673 7.342 131.717 7.314C131.765 7.282 131.817 7.266 131.873 7.266C131.925 7.266 131.983 7.288 132.047 7.332C132.115 7.372 132.191 7.424 132.275 7.488C132.359 7.552 132.455 7.622 132.563 7.698C132.671 7.774 132.793 7.844 132.929 7.908C133.069 7.972 133.227 8.026 133.403 8.07C133.579 8.11 133.777 8.13 133.997 8.13C134.273 8.13 134.519 8.092 134.735 8.016C134.951 7.94 135.133 7.834 135.281 7.698C135.433 7.558 135.549 7.392 135.629 7.2C135.709 7.008 135.749 6.794 135.749 6.558C135.749 6.298 135.689 6.086 135.569 5.922C135.453 5.754 135.299 5.614 135.107 5.502C134.915 5.39 134.695 5.296 134.447 5.22C134.199 5.14 133.947 5.06 133.691 4.98C133.435 4.896 133.183 4.8 132.935 4.692C132.687 4.584 132.467 4.444 132.275 4.272C132.083 4.1 131.927 3.886 131.807 3.63C131.691 3.37 131.633 3.05 131.633 2.67C131.633 2.366 131.691 2.072 131.807 1.788C131.927 1.504 132.099 1.252 132.323 1.032C132.551 0.812 132.829 0.636 133.157 0.504C133.489 0.372 133.869 0.305999 134.297 0.305999C134.777 0.305999 135.213 0.381999 135.605 0.534C136.001 0.686 136.349 0.906 136.649 1.194L136.367 1.746ZM145.451 0.401999V9H144.287V5.088H139.649V9H138.485V0.401999H139.649V4.236H144.287V0.401999H145.451ZM154.615 0.401999V9H154.033C153.941 9 153.863 8.984 153.799 8.952C153.739 8.92 153.679 8.866 153.619 8.79L148.645 2.31C148.653 2.41 148.659 2.508 148.663 2.604C148.667 2.7 148.669 2.79 148.669 2.874V9H147.649V0.401999H148.249C148.301 0.401999 148.345 0.405999 148.381 0.413999C148.417 0.418 148.449 0.427999 148.477 0.443999C148.505 0.455999 148.533 0.476 148.561 0.504C148.589 0.528 148.619 0.559999 148.651 0.599999L153.625 7.074C153.617 6.97 153.609 6.87 153.601 6.774C153.597 6.674 153.595 6.58 153.595 6.492V0.401999H154.615ZM161.379 5.808L160.029 2.31C159.989 2.206 159.947 2.086 159.903 1.95C159.859 1.81 159.817 1.662 159.777 1.506C159.693 1.83 159.607 2.1 159.519 2.316L158.169 5.808H161.379ZM163.803 9H162.903C162.799 9 162.715 8.974 162.651 8.922C162.587 8.87 162.539 8.804 162.507 8.724L161.703 6.648H157.845L157.041 8.724C157.017 8.796 156.971 8.86 156.903 8.916C156.835 8.972 156.751 9 156.651 9H155.751L159.189 0.401999H160.365L163.803 9ZM171.9 0.401999V9H171.318C171.226 9 171.148 8.984 171.084 8.952C171.024 8.92 170.964 8.866 170.904 8.79L165.93 2.31C165.938 2.41 165.944 2.508 165.948 2.604C165.952 2.7 165.954 2.79 165.954 2.874V9H164.934V0.401999H165.534C165.586 0.401999 165.63 0.405999 165.666 0.413999C165.702 0.418 165.734 0.427999 165.762 0.443999C165.79 0.455999 165.818 0.476 165.846 0.504C165.874 0.528 165.904 0.559999 165.936 0.599999L170.91 7.074C170.902 6.97 170.894 6.87 170.886 6.774C170.882 6.674 170.88 6.58 170.88 6.492V0.401999H171.9Z" fill="#C4C4C4"/>
</svg>
